<!DOCTYPE svg PUBLIC "-//W3C//DTD SVG 20010904//EN" "http://www.w3.org/TR/2001/REC-SVG-20010904/DTD/svg10.dtd">
<svg version="1.0" xmlns="http://www.w3.org/2000/svg" width="340px" height="179px" viewBox="0 0 3400 1790" preserveAspectRatio="xMidYMid meet">
<g id="layer101" fill="#581960" stroke="none">
<path d="M0 895 l0 -895 1700 0 1700 0 0 895 0 895 -1700 0 -1700 0 0 -895z"/>
</g>
<g id="layer102" fill="#621e6b" stroke="none">
<path d="M0 895 l0 -895 1700 0 1700 0 0 895 0 895 -1700 0 -1700 0 0 -895z m2384 288 c37 -46 66 -83 63 -83 -6 0 -140 159 -152 180 -13 24 12 -3 89 -97z m-737 -154 c55 -41 98 -94 208 -254 84 -123 58 -102 -97 80 -66 77 -145 164 -177 193 -51 49 -53 52 -21 37 19 -10 58 -35 87 -56z m675 44 c-3 -16 -7 -22 -10 -15 -4 13 4 42 11 42 2 0 2 -12 -1 -27z m-42 -54 c23 -32 39 -59 36 -59 -2 0 -25 30 -50 66 -26 36 -42 63 -36 59 6 -3 28 -33 50 -66z m210 36 l25 -30 -27 24 c-16 14 -28 29 -28 34 0 6 1 8 3 6 1 -2 13 -17 27 -34z m499 -31 c30 -50 17 -42 -20 14 -18 26 -26 41 -16 34 9 -8 25 -29 36 -48z m38 39 c-4 -3 -7 0 -7 7 0 7 3 10 7 7 3 -4 3 -10 0 -14z m-416 -47 c35 -44 17 -36 -26 13 -22 25 -30 38 -18 30 12 -9 32 -28 44 -43z m88 -20 c35 -38 35 -39 5 -15 -31 23 -64 69 -64 86 0 4 6 -1 12 -12 6 -11 27 -38 47 -59z m-761 4 c12 -18 22 -45 21 -59 -1 -22 -3 -20 -11 11 -5 20 -26 54 -46 75 -27 27 -30 33 -12 22 14 -9 35 -31 48 -49z m52 18 c19 -24 26 -37 17 -29 -19 15 -61 71 -54 71 2 0 19 -19 37 -42z m160 -13 l35 -40 -33 30 c-19 17 -38 39 -44 50 -6 11 -7 16 -2 10 5 -5 25 -28 44 -50z m650 -38 c0 -5 -12 6 -27 25 -45 56 -50 66 -11 23 21 -22 38 -44 38 -48z m54 48 l28 -40 -31 33 c-17 18 -31 37 -31 44 0 6 1 9 3 7 2 -2 15 -22 31 -44z m200 -5 c10 -13 9 -13 -6 -1 -10 7 -18 21 -17 30 0 13 1 14 6 1 3 -8 11 -22 17 -30z m-720 14 c3 -8 2 -12 -4 -9 -6 3 -10 10 -10 16 0 14 7 11 14 -7z m222 -51 c21 -27 28 -39 15 -28 -24 21 -66 75 -58 75 3 0 22 -21 43 -47z m395 -10 c13 -16 12 -17 -3 -4 -10 7 -18 15 -18 17 0 8 8 3 21 -13z m99 -28 c17 -25 29 -45 26 -45 -3 0 -19 20 -36 45 -17 25 -29 45 -26 45 3 0 19 -20 36 -45z m99 1 c-3 -3 -11 5 -18 17 -13 21 -12 21 5 5 10 -10 16 -20 13 -22z m-711 -1 c-3 -3 -9 2 -12 12 -6 14 -5 15 5 6 7 -7 10 -15 7 -18z m-88 -15 c12 -16 19 -30 16 -30 -2 0 -14 14 -26 30 -12 17 -19 30 -16 30 2 0 14 -13 26 -30z m745 -50 c3 -5 4 -10 1 -10 -3 0 -8 5 -11 10 -3 6 -4 10 -1 10 3 0 8 -4 11 -10z m-1045 -192 c0 -20 -4 -39 -8 -42 -4 -2 -6 11 -4 29 3 23 -3 47 -18 72 l-22 38 26 -30 c18 -20 26 -42 26 -67z m-23 -65 c-4 -3 -10 -3 -14 0 -3 4 0 7 7 7 7 0 10 -3 7 -7z"/>
</g>
<g id="layer103" fill="#6c3173" stroke="none">
<path d="M0 895 l0 -895 1700 0 1700 0 0 895 0 895 -1700 0 -1700 0 0 -895z m2371 303 c45 -57 86 -105 89 -108 3 -3 37 -43 74 -90 37 -47 51 -67 29 -44 -21 22 -88 101 -148 175 -131 159 -139 169 -133 169 3 0 43 -46 89 -102z m-723 -167 c47 -35 98 -97 203 -251 90 -132 56 -102 -128 113 -74 86 -138 157 -142 157 -3 1 -22 15 -41 31 l-35 31 50 -25 c28 -14 69 -39 93 -56z m667 -61 c32 -47 67 -96 79 -110 15 -17 16 -20 3 -11 -19 15 -177 235 -177 247 0 10 30 -30 95 -126z m8 111 c-3 -11 2 -34 11 -51 12 -25 12 -29 1 -20 -16 13 -29 65 -20 80 10 16 14 12 8 -9z m667 -57 c0 -6 16 -29 35 -51 19 -23 35 -44 35 -48 0 -4 15 -26 33 -48 17 -23 26 -38 19 -33 -14 8 -182 242 -182 253 0 11 59 -61 60 -73z m-368 -22 c11 -18 18 -36 14 -39 -3 -4 -6 -1 -6 6 0 6 -21 35 -47 63 -40 43 -43 48 -15 27 18 -13 43 -39 54 -57z m431 8 c10 -13 9 -13 -5 0 -9 8 -19 29 -22 45 l-6 30 11 -30 c7 -16 16 -37 22 -45z m-1112 -14 c20 -32 26 -91 10 -100 -5 -4 -7 3 -4 14 9 34 -6 69 -50 118 -40 44 -41 45 -9 23 19 -13 43 -38 53 -55z m53 19 l38 -50 -41 42 c-23 23 -41 48 -41 54 0 7 1 10 3 8 1 -2 20 -26 41 -54z m165 -19 c35 -38 35 -39 5 -15 -31 23 -64 69 -64 86 0 4 6 -1 12 -12 6 -11 27 -38 47 -59z m540 0 l36 -39 -33 24 c-35 25 -62 61 -62 81 0 7 6 4 12 -7 6 -11 27 -38 47 -59z m101 -32 c0 -3 -18 16 -40 42 -22 27 -40 52 -40 57 0 5 18 -14 40 -42 22 -28 40 -53 40 -57z m74 26 l21 -25 -30 25 c-16 14 -31 25 -31 25 -1 0 -5 11 -9 25 l-7 25 18 -25 c9 -14 27 -36 38 -50z m-635 6 c-2 -2 -13 8 -23 22 l-19 27 24 -22 c12 -12 21 -24 18 -27z m-154 14 c3 -5 4 -10 1 -10 -3 0 -8 5 -11 10 -3 6 -4 10 -1 10 3 0 8 -4 11 -10z m866 -47 c13 -16 12 -17 -3 -4 -10 7 -18 15 -18 17 0 8 8 3 21 -13z m-512 -27 c-3 -3 -11 5 -18 17 -13 21 -12 21 5 5 10 -10 16 -20 13 -22z m710 0 c-3 -3 -11 5 -18 17 -13 21 -12 21 5 5 10 -10 16 -20 13 -22z m-534 -36 c3 -5 4 -10 1 -10 -3 0 -8 5 -11 10 -3 6 -4 10 -1 10 3 0 8 -4 11 -10z m-748 -57 c-4 -3 -10 -3 -14 0 -3 4 0 7 7 7 7 0 10 -3 7 -7z m568 -33 c10 -11 16 -20 13 -20 -3 0 -13 9 -23 20 -10 11 -16 20 -13 20 3 0 13 -9 23 -20z m716 -7 c13 -16 12 -17 -3 -4 -17 13 -22 21 -14 21 2 0 10 -8 17 -17z m-1176 -13 c3 -5 4 -10 1 -10 -3 0 -8 5 -11 10 -3 6 -4 10 -1 10 3 0 8 -4 11 -10z m69 -75 c19 -40 20 -46 3 -69 -12 -16 -13 -14 -9 18 3 28 -2 47 -23 79 -22 33 -23 38 -7 24 11 -11 28 -34 36 -52z m-17 -102 c-4 -3 -10 -3 -14 0 -3 4 0 7 7 7 7 0 10 -3 7 -7z"/>
</g>
<g id="layer104" fill="#77467d" stroke="none">
<path d="M0 895 l0 -895 1700 0 1700 0 0 895 0 895 -1700 0 -1700 0 0 -895z m2398 273 c60 -73 119 -142 131 -152 11 -11 21 -24 21 -31 0 -6 12 -22 26 -36 14 -13 31 -33 36 -44 6 -11 -7 0 -29 25 -64 72 -303 361 -303 366 0 12 17 -6 118 -128z m-798 -103 c30 -18 73 -53 96 -77 49 -52 110 -129 114 -143 4 -18 82 -123 118 -161 33 -34 34 -35 7 -17 -38 27 -107 100 -222 233 -89 103 -154 168 -203 202 l-25 18 30 -11 c16 -5 54 -25 85 -44z m680 -41 c0 -6 16 -29 35 -51 19 -23 35 -44 35 -48 0 -4 14 -26 32 -49 18 -23 23 -33 11 -23 -24 21 -173 230 -173 243 0 12 59 -59 60 -72z m43 57 c-3 -11 2 -35 11 -53 l16 -33 -20 24 c-20 23 -26 61 -13 74 10 11 11 8 6 -12z m681 -76 c18 -27 40 -56 49 -64 10 -7 17 -19 17 -25 0 -6 23 -40 51 -76 42 -54 43 -57 9 -20 -47 51 -200 263 -200 276 1 12 32 -28 74 -91z m33 59 c1 -19 8 -43 15 -52 12 -15 11 -16 -4 -4 -19 15 -33 66 -23 82 9 15 10 13 12 -26z m-1160 -3 c59 -43 83 -78 83 -122 0 -21 -4 -40 -8 -43 -4 -2 -6 10 -4 27 4 40 -27 89 -86 134 -54 41 -40 44 15 4z m137 -71 c11 -14 2 -7 -21 16 -24 24 -43 51 -43 61 0 12 7 6 21 -17 12 -19 31 -46 43 -60z m607 16 c10 -17 19 -38 19 -46 0 -8 -7 -1 -16 15 -8 17 -32 48 -52 69 l-37 39 33 -23 c19 -12 43 -37 53 -54z m74 -5 c37 -42 38 -44 9 -23 -33 22 -56 53 -67 87 -6 20 -6 20 6 1 7 -11 30 -40 52 -65z m198 -25 c18 -15 23 -23 12 -17 -41 22 -82 67 -89 96 -7 28 -6 28 19 -10 14 -22 41 -53 58 -69z m-729 15 l31 -34 -31 21 c-33 23 -64 63 -64 84 0 7 7 1 17 -12 9 -14 30 -40 47 -59z m636 -26 c0 -3 -18 15 -40 40 -22 25 -40 51 -40 57 0 6 18 -12 40 -40 22 -27 40 -53 40 -57z m-561 31 c-2 -2 -13 8 -23 22 l-19 27 24 -22 c12 -12 21 -24 18 -27z m-158 17 c13 -16 12 -17 -3 -4 -17 13 -22 21 -14 21 2 0 10 -8 17 -17z m359 -80 c0 -7 -5 -13 -11 -13 -5 0 -7 5 -4 11 4 5 -1 20 -12 32 l-18 22 23 -19 c12 -11 22 -25 22 -33z m510 32 c11 -13 10 -14 -4 -9 -9 3 -16 10 -16 15 0 13 6 11 20 -6z m200 -32 c0 -7 -5 -13 -11 -13 -5 0 -7 5 -4 11 4 5 -1 20 -12 32 l-18 22 23 -19 c12 -11 22 -25 22 -33z m-1283 -89 c-3 -3 -12 -4 -19 -1 -8 3 -5 6 6 6 11 1 17 -2 13 -5z m573 -39 c13 -14 21 -25 18 -25 -2 0 -15 11 -28 25 -13 14 -21 25 -18 25 2 0 15 -11 28 -25z m-419 -53 c16 -18 31 -43 35 -56 6 -26 -20 -86 -37 -86 -6 0 -3 7 5 16 9 8 16 32 16 52 0 31 -8 44 -56 90 -42 41 -48 50 -24 36 18 -11 45 -34 61 -52z"/>
</g>
<g id="layer105" fill="#7b3e84" stroke="none">
<path d="M0 895 l0 -895 1700 0 1700 0 0 895 0 895 -1700 0 -1700 0 0 -895z m2421 245 c53 -63 106 -124 117 -134 12 -11 22 -24 22 -31 0 -7 9 -20 21 -31 11 -10 26 -28 31 -39 6 -11 -11 3 -38 30 -27 28 -48 52 -47 53 1 2 -54 71 -123 153 -68 82 -124 155 -124 162 0 6 11 -1 23 -18 12 -16 65 -82 118 -145z m-859 -52 c31 -17 75 -46 98 -65 40 -35 160 -175 162 -190 1 -16 62 -100 107 -147 l46 -49 -40 30 c-50 39 -118 110 -227 238 -106 124 -150 166 -208 200 -60 35 -12 22 62 -17z m299 -16 c90 -57 125 -134 84 -188 -13 -17 -13 -16 -3 12 21 58 -16 121 -101 176 -25 15 -40 28 -35 28 6 0 30 -13 55 -28z m437 -71 c20 -30 48 -70 61 -90 13 -20 42 -58 63 -86 l40 -50 -46 50 c-50 53 -196 257 -196 271 0 11 30 -24 78 -95z m29 63 c1 -19 7 -42 14 -50 10 -12 9 -13 -4 -8 -18 6 -33 66 -22 83 9 16 10 14 12 -25z m673 -50 c0 -6 15 -28 33 -50 19 -21 36 -46 39 -54 3 -8 27 -42 53 -75 l47 -60 -46 50 c-47 51 -196 257 -196 271 0 11 69 -70 70 -82z m34 72 c-3 -7 2 -31 10 -52 l16 -39 -20 24 c-20 23 -26 61 -13 74 10 11 13 8 7 -7z m-416 -76 c12 -18 22 -40 22 -49 0 -9 -7 -2 -16 14 -8 17 -34 50 -57 74 -41 44 -41 44 -7 19 19 -14 45 -40 58 -58z m91 -23 c47 -43 45 -49 -4 -11 -38 29 -59 57 -69 94 -5 18 -1 14 13 -11 11 -19 38 -52 60 -72z m-686 -7 c11 -14 -1 -4 -26 22 -26 26 -47 54 -47 64 0 10 10 2 26 -22 14 -21 35 -50 47 -64z m137 16 l35 -40 -31 22 c-33 22 -56 53 -67 87 -5 15 -2 14 11 -5 9 -14 33 -43 52 -64z m733 -20 c18 -15 23 -23 12 -17 -41 22 -82 67 -89 96 -7 28 -6 28 19 -10 14 -22 41 -53 58 -69z m-842 77 c13 -16 12 -17 -3 -4 -17 13 -22 21 -14 21 2 0 10 -8 17 -17z m753 -92 c-2 -2 -5 -2 -7 0 -1 2 -19 23 -40 47 -20 23 -37 47 -37 53 0 6 20 -13 44 -43 24 -29 42 -55 40 -57z m-565 35 c-2 -2 -13 8 -23 22 l-19 27 24 -22 c12 -12 21 -24 18 -27z m-149 3 c15 -28 5 -23 -15 7 -9 15 -12 23 -6 20 6 -4 16 -16 21 -27z m1043 -37 c19 -17 23 -42 6 -42 -5 0 -7 5 -3 12 4 6 -5 22 -22 36 -16 13 -22 21 -14 17 8 -5 23 -15 33 -23z m-693 -29 c0 -7 -5 -13 -11 -13 -5 0 -7 5 -4 11 4 5 -1 20 -12 32 l-18 22 23 -19 c12 -11 22 -25 22 -33z m510 32 c11 -13 10 -14 -4 -9 -9 3 -16 10 -16 15 0 13 6 11 20 -6z m-1087 -122 c-7 -2 -19 -2 -25 0 -7 3 -2 5 12 5 14 0 19 -2 13 -5z m149 -80 c40 -38 53 -76 38 -113 -7 -17 -22 -36 -34 -42 -20 -10 -20 -10 2 14 40 44 23 99 -50 164 -32 27 -35 33 -13 20 17 -10 42 -30 57 -43z"/>
</g>
<g id="layer106" fill="#7e4d84" stroke="none">
<path d="M0 895 l0 -895 1700 0 1700 0 0 895 0 895 -1700 0 -1700 0 0 -895z m2420 246 c53 -64 107 -125 118 -135 12 -11 22 -24 22 -31 0 -7 9 -20 21 -31 11 -10 26 -28 31 -39 6 -11 -11 3 -38 30 -27 28 -48 52 -47 53 1 2 -54 71 -123 153 -68 82 -124 155 -124 162 0 6 10 -1 22 -17 12 -15 65 -81 118 -145z m-858 -53 c31 -17 75 -46 98 -65 40 -35 160 -175 162 -190 1 -16 62 -100 107 -147 l46 -49 -40 30 c-50 39 -118 110 -227 238 -106 124 -150 166 -208 200 -60 35 -12 22 62 -17z m299 -16 c90 -57 125 -134 84 -188 -13 -17 -13 -16 -3 12 21 58 -16 121 -101 176 -25 15 -40 28 -35 28 6 0 30 -13 55 -28z m429 -58 c0 -6 15 -28 33 -50 19 -21 36 -46 39 -54 3 -8 27 -42 52 -75 l47 -60 -46 50 c-47 51 -195 256 -195 270 0 12 69 -68 70 -81z m37 50 c1 -19 7 -42 14 -50 10 -12 9 -13 -4 -8 -18 6 -33 66 -22 83 9 16 10 14 12 -25z m673 -50 c0 -6 16 -29 35 -51 19 -23 35 -45 35 -50 0 -5 25 -40 56 -79 l55 -69 -50 55 c-51 54 -201 261 -201 276 0 11 69 -70 70 -82z m34 72 c-3 -7 2 -31 10 -52 l16 -39 -20 24 c-20 23 -26 61 -13 74 10 11 13 8 7 -7z m-467 -22 c37 -28 73 -80 73 -104 0 -8 -8 0 -16 17 -9 18 -36 51 -60 73 -49 45 -48 53 3 14z m152 -87 c45 -38 28 -34 -21 5 -22 17 -47 46 -54 65 -21 50 -17 51 14 2 16 -24 43 -57 61 -72z m-696 3 c11 -14 -1 -4 -26 22 -26 26 -47 54 -47 64 0 10 10 2 26 -22 14 -21 35 -50 47 -64z m142 11 l40 -45 -37 28 c-38 28 -60 56 -71 91 -5 15 -2 14 11 -5 9 -14 35 -45 57 -69z m75 6 c-3 -2 -23 17 -44 42 l-40 46 44 -42 c24 -23 42 -44 40 -46z m653 -21 c18 -15 23 -23 12 -17 -41 22 -82 67 -89 96 -7 28 -6 28 19 -10 14 -22 41 -53 58 -69z m-842 77 c13 -16 12 -17 -3 -4 -17 13 -22 21 -14 21 2 0 10 -8 17 -17z m753 -92 c-2 -2 -5 -2 -7 0 -1 2 -19 23 -40 47 -20 23 -37 47 -37 53 0 6 20 -13 44 -42 25 -30 43 -56 40 -58z m-714 38 c15 -28 5 -23 -15 7 -9 15 -12 23 -6 20 6 -4 16 -16 21 -27z m1043 -37 c19 -17 23 -42 6 -42 -5 0 -7 5 -3 12 4 6 -5 22 -22 36 -16 13 -22 21 -14 17 8 -5 23 -15 33 -23z m-711 1 c19 -17 24 -43 8 -43 -5 0 -7 6 -4 14 3 8 -5 21 -18 30 -12 9 -18 16 -14 16 5 0 18 -7 28 -17z m532 1 c9 -24 7 -27 -9 -10 -17 17 -19 26 -6 26 5 0 12 -7 15 -16z m-1081 -121 c-7 -2 -21 -2 -30 0 -10 3 -4 5 12 5 17 0 24 -2 18 -5z m139 -80 c40 -38 53 -76 38 -113 -7 -17 -22 -36 -34 -42 -20 -10 -20 -10 2 14 40 44 23 99 -50 164 -32 27 -35 33 -13 20 17 -10 42 -30 57 -43z"/>
</g>
<g id="layer107" fill="#87578d" stroke="none">
<path d="M0 895 l0 -895 1700 0 1700 0 0 895 0 895 -1700 0 -1700 0 0 -895z m2402 270 c59 -71 118 -141 132 -154 14 -14 26 -30 26 -36 0 -6 14 -24 30 -40 17 -16 30 -33 30 -38 0 -9 -85 77 -91 91 -1 4 -48 61 -103 126 -119 141 -146 176 -146 190 0 12 -9 23 122 -139z m-839 -78 c72 -38 131 -89 197 -172 46 -57 56 -65 88 -67 l37 -1 -32 -4 c-18 -2 -33 -7 -33 -9 0 -13 67 -103 109 -148 35 -37 39 -44 16 -28 -39 26 -128 120 -242 252 -111 128 -145 161 -203 195 -60 35 -12 21 63 -18z m298 -15 c90 -58 125 -136 83 -188 -14 -18 -15 -18 -4 5 27 54 -29 148 -112 190 -24 11 -36 21 -27 21 8 0 35 -13 60 -28z m429 -58 c0 -6 16 -29 35 -51 19 -23 35 -45 35 -50 0 -5 25 -40 56 -79 l55 -69 -51 55 c-52 55 -187 240 -197 269 -4 9 10 -2 30 -24 20 -22 36 -45 37 -51z m37 50 c1 -19 8 -43 15 -51 11 -14 11 -15 -2 -11 -17 5 -35 60 -27 82 9 24 12 20 14 -20z m261 -18 c26 -23 52 -67 52 -87 0 -7 -13 7 -29 32 -15 25 -46 60 -67 79 -31 27 -33 30 -9 15 17 -10 41 -27 53 -39z m412 -32 c0 -6 16 -29 35 -51 19 -23 35 -45 35 -49 0 -4 27 -42 61 -83 l60 -76 -55 58 c-53 56 -206 266 -206 282 0 12 69 -68 70 -81z m35 77 c-3 -5 1 -28 8 -49 12 -33 12 -39 1 -35 -23 9 -30 93 -8 93 3 0 3 -4 -1 -9z m-795 -95 c-3 -2 -25 19 -49 48 l-44 51 48 -47 c27 -26 47 -49 45 -52z m479 -19 c41 -34 29 -36 -16 -1 -37 28 -57 56 -68 94 -5 16 3 9 22 -20 16 -25 44 -58 62 -73z m366 103 c3 -5 4 -10 1 -10 -3 0 -8 5 -11 10 -3 6 -4 10 -1 10 3 0 8 -4 11 -10z m-1047 -109 c33 -30 34 -31 6 -12 -42 28 -94 88 -94 108 0 9 12 -2 26 -23 14 -21 42 -54 62 -73z m127 19 l40 -45 -45 36 c-24 20 -50 51 -57 70 l-13 34 17 -25 c10 -14 36 -45 58 -70z m230 70 c10 -11 16 -20 13 -20 -3 0 -13 9 -23 20 -10 11 -16 20 -13 20 3 0 13 -9 23 -20z m484 -64 c25 -26 37 -43 26 -37 -42 22 -83 67 -89 96 -5 26 -5 27 5 10 6 -11 32 -42 58 -69z m-782 -9 c1 -11 -9 -3 -24 20 -14 21 -30 45 -36 53 -6 8 5 -1 24 -20 19 -19 35 -43 36 -53z m670 31 c52 -63 48 -79 -5 -18 -43 50 -56 70 -45 69 4 0 27 -23 50 -51z m348 32 c3 -5 4 -10 1 -10 -3 0 -8 5 -11 10 -3 6 -4 10 -1 10 3 0 8 -4 11 -10z m-692 -88 c19 -17 23 -42 6 -42 -5 0 -7 5 -3 12 4 6 -5 22 -22 36 -16 13 -22 21 -14 17 8 -5 23 -15 33 -23z m710 0 c19 -17 23 -42 6 -42 -5 0 -7 5 -3 12 4 6 -5 22 -22 36 -16 13 -22 21 -14 17 8 -5 23 -15 33 -23z m-174 -7 c3 -17 2 -17 -13 -3 -19 20 -21 31 -3 26 6 -3 14 -13 16 -23z m-980 -165 c44 -32 81 -83 81 -113 0 -23 -27 -64 -48 -72 -12 -4 -10 0 6 18 25 27 28 57 8 95 -15 29 -59 73 -91 90 -11 6 -15 12 -9 12 6 0 30 -14 53 -30z m-558 -67 c13 -16 12 -17 -3 -4 -17 13 -22 21 -14 21 2 0 10 -8 17 -17z"/>
</g>
<g id="layer108" fill="#946f98" stroke="none">
<path d="M0 895 l0 -895 1700 0 1700 0 0 895 0 895 -1700 0 -1700 0 0 -895z m2407 265 c61 -74 120 -144 132 -154 11 -11 21 -24 21 -31 0 -6 12 -22 26 -36 14 -13 30 -33 36 -44 6 -11 -15 6 -46 38 -31 32 -56 61 -56 63 0 3 -44 58 -98 122 -122 146 -142 172 -142 185 0 13 -10 24 127 -143z m-1060 -7 c-4 -3 -10 -3 -14 0 -3 4 0 7 7 7 7 0 10 -3 7 -7z m70 -10 c-4 -3 -10 -3 -14 0 -3 4 0 7 7 7 7 0 10 -3 7 -7z m133 -48 c89 -45 139 -87 205 -172 51 -66 60 -73 93 -75 l37 -1 -32 -4 c-18 -2 -33 -7 -33 -9 0 -12 67 -102 110 -148 35 -39 38 -45 15 -29 -40 29 -143 137 -244 255 -95 112 -157 170 -221 204 -65 35 -7 17 70 -21z m-310 32 c0 -2 -10 -12 -22 -23 l-23 -19 19 23 c18 21 26 27 26 19z m588 -37 c86 -39 132 -91 132 -151 0 -30 -29 -92 -30 -64 0 6 5 16 11 22 18 18 2 75 -33 117 -18 23 -57 50 -92 67 -34 16 -54 29 -46 29 8 0 34 -9 58 -20z m-168 6 c0 -3 -5 -8 -12 -12 -7 -4 -8 -3 -4 4 7 12 16 16 16 8z m413 -64 c15 -17 27 -38 27 -47 0 -11 -10 -3 -26 21 -14 21 -40 52 -57 67 l-32 29 30 -20 c17 -12 42 -34 58 -50z m217 -18 c0 -6 17 -31 39 -55 21 -24 38 -47 37 -51 0 -4 25 -40 57 -80 l58 -73 -55 57 c-55 58 -191 242 -203 275 -3 10 10 0 30 -22 20 -22 36 -45 37 -51z m35 76 c-10 -15 14 -78 33 -90 10 -5 12 -10 5 -10 -35 -1 -70 79 -46 103 10 10 15 8 8 -3z m281 -63 c35 -38 43 -70 22 -83 -7 -4 -8 -3 -4 5 10 16 -28 74 -77 117 -39 33 -40 35 -9 17 19 -10 49 -35 68 -56z m398 -18 c-2 -4 15 -27 37 -53 22 -25 38 -46 34 -46 -7 0 41 -63 99 -131 17 -19 4 -8 -29 25 -57 58 -201 251 -212 285 -3 9 13 -4 35 -29 22 -25 38 -48 36 -51z m33 79 c-1 -39 5 -60 23 -78 22 -22 19 -25 -10 -10 -20 11 -37 71 -25 89 8 14 13 14 12 -1z m-794 -102 c5 -20 5 -20 -6 -2 -7 11 -30 40 -52 65 l-39 46 46 -44 c26 -24 49 -53 51 -65z m157 69 c19 -19 32 -35 29 -35 -3 0 -20 16 -39 35 -19 19 -32 35 -29 35 3 0 20 -16 39 -35z m326 -84 c31 -27 33 -30 9 -16 -42 25 -75 56 -91 87 -25 48 -15 53 14 7 16 -24 46 -59 68 -78z m163 15 l46 -49 -48 33 c-60 43 -66 49 -72 91 l-6 34 17 -30 c9 -16 37 -52 63 -79z m217 72 l29 -33 -32 29 c-31 28 -38 36 -30 36 2 0 16 -15 33 -32z m-1074 -80 l43 -42 -44 32 c-46 33 -81 77 -81 102 0 8 9 1 20 -17 10 -18 39 -51 62 -75z m138 7 l35 -40 -35 26 c-36 27 -80 84 -80 103 0 6 11 -2 23 -19 12 -16 38 -48 57 -70z m599 31 c22 -28 38 -52 36 -54 -5 -6 -94 90 -95 101 0 17 19 1 59 -47z m26 44 c3 -5 4 -10 1 -10 -3 0 -8 5 -11 10 -3 6 -4 10 -1 10 3 0 8 -4 11 -10z m155 -35 c13 -14 21 -25 18 -25 -2 0 -15 11 -28 25 -13 14 -21 25 -18 25 2 0 15 -11 28 -25z m-1763 -32 c-4 -3 -7 0 -7 7 0 7 3 10 7 7 3 -4 3 -10 0 -14z m1236 -31 c9 -8 17 -21 17 -29 0 -7 -8 -13 -17 -13 -16 0 -16 2 -3 10 13 9 10 15 -15 36 -16 15 -23 23 -15 19 8 -5 23 -15 33 -23z m727 -22 c0 -12 -7 -20 -17 -20 -16 0 -16 2 -3 10 13 9 10 15 -15 36 l-30 26 33 -16 c20 -10 32 -24 32 -36z m-191 14 c3 -16 1 -17 -13 -5 -19 16 -21 34 -3 29 6 -3 14 -13 16 -24z m-1754 6 c3 -5 4 -10 1 -10 -3 0 -8 5 -11 10 -3 6 -4 10 -1 10 3 0 8 -4 11 -10z m20 -30 c3 -5 4 -10 1 -10 -3 0 -8 5 -11 10 -3 6 -4 10 -1 10 3 0 8 -4 11 -10z m292 3 c-4 -3 -10 -3 -14 0 -3 4 0 7 7 7 7 0 10 -3 7 -7z m123 -49 c0 -2 -9 0 -20 6 -11 6 -20 13 -20 16 0 2 9 0 20 -6 11 -6 20 -13 20 -16z m-283 -46 c-3 -8 -6 -5 -6 6 -1 11 2 17 5 13 3 -3 4 -12 1 -19z m609 -40 c55 -37 94 -89 94 -125 0 -24 -51 -83 -72 -83 -5 0 4 12 21 26 56 47 31 119 -63 182 -26 17 -44 32 -38 32 5 0 32 -15 58 -32z m-581 -28 c3 -5 4 -10 1 -10 -3 0 -8 5 -11 10 -3 6 -4 10 -1 10 3 0 8 -4 11 -10z m35 -45 c13 -14 21 -25 18 -25 -2 0 -15 11 -28 25 -13 14 -21 25 -18 25 2 0 15 -11 28 -25z m55 -45 c3 -5 4 -10 1 -10 -3 0 -8 5 -11 10 -3 6 -4 10 -1 10 3 0 8 -4 11 -10z m30 -20 c3 -5 4 -10 1 -10 -3 0 -8 5 -11 10 -3 6 -4 10 -1 10 3 0 8 -4 11 -10z m490 -30 c3 -5 4 -10 1 -10 -3 0 -8 5 -11 10 -3 6 -4 10 -1 10 3 0 8 -4 11 -10z m182 -47 c-4 -3 -10 -3 -14 0 -3 4 0 7 7 7 7 0 10 -3 7 -7z"/>
</g>
<g id="layer109" fill="#f3b802" stroke="none">
<path d="M0 895 l0 -895 1700 0 1700 0 0 895 0 895 -1700 0 -1700 0 0 -895z m2412 260 c58 -71 117 -141 132 -154 14 -14 26 -30 26 -36 0 -6 14 -24 30 -40 17 -16 30 -33 30 -39 0 -5 -24 13 -52 42 -29 29 -62 59 -73 67 -19 14 -19 15 -1 8 11 -3 -35 58 -102 138 -67 79 -122 151 -122 159 0 18 -2 21 132 -145z m-1049 -2 c-7 -2 -21 -2 -30 0 -10 3 -4 5 12 5 17 0 24 -2 18 -5z m-76 -10 c-4 -3 -10 -3 -14 0 -3 4 0 7 7 7 7 0 10 -3 7 -7z m130 1 c-3 -3 -12 -4 -19 -1 -8 3 -5 6 6 6 11 1 17 -2 13 -5z m113 -40 c102 -49 162 -97 222 -177 43 -58 55 -68 89 -73 49 -8 60 -21 13 -16 -19 2 -34 1 -34 -3 0 -17 94 -137 137 -175 l48 -42 -45 30 c-61 40 -98 78 -239 241 -131 152 -183 200 -252 230 -24 11 -37 21 -29 21 9 0 49 -16 90 -36z m-312 -3 c-13 -15 -25 -27 -27 -25 -4 4 39 54 47 54 2 0 -7 -13 -20 -29z m469 2 c-4 -3 -10 -3 -14 0 -3 4 0 7 7 7 7 0 10 -3 7 -7z m141 -13 c70 -32 103 -60 123 -105 15 -35 17 -48 8 -74 -6 -17 -20 -36 -31 -42 -18 -10 -18 -9 2 19 25 34 23 57 -9 109 -23 36 -82 78 -138 99 -22 7 -30 13 -18 13 11 0 39 -8 63 -19z m-168 6 c0 -3 -5 -8 -12 -12 -7 -4 -8 -3 -4 4 7 12 16 16 16 8z m403 -55 c20 -19 37 -44 37 -56 -1 -20 -1 -20 -12 0 -6 11 -31 42 -57 69 -49 53 -31 45 32 -13z m198 17 c19 -24 34 -46 34 -50 0 -3 4 -10 9 -15 6 -5 6 -2 1 7 -8 13 -6 13 8 1 9 -7 14 -18 11 -23 -4 -6 24 -42 62 -81 38 -40 54 -59 37 -42 -53 47 -38 15 28 -60 60 -69 60 -69 -17 11 -44 44 -112 129 -152 187 -73 107 -85 144 -21 65z m65 34 c-3 -5 -1 -25 5 -45 8 -29 19 -42 52 -58 23 -12 45 -27 49 -33 13 -19 9 -36 -9 -36 -14 0 -15 2 -5 9 17 11 -5 34 -58 61 -21 10 -40 26 -44 35 -10 26 -7 75 5 75 5 0 8 -4 5 -8z m69 -34 l40 -43 -45 40 c-25 22 -47 41 -49 43 -2 1 0 2 5 2 6 0 28 -19 49 -42z m211 -31 c33 -36 46 -87 23 -87 -5 0 -7 5 -4 10 9 15 -19 57 -74 109 -42 40 -43 43 -13 25 19 -10 49 -36 68 -57z m170 -19 c21 -23 31 -44 28 -53 -5 -12 -10 -10 -21 12 -8 15 -27 42 -44 58 -16 18 -29 42 -29 55 1 24 1 24 17 -5 9 -16 31 -47 49 -67z m229 -3 c1 -5 7 -9 14 -7 7 1 10 -2 6 -8 -3 -6 22 -40 57 -77 35 -37 55 -61 46 -54 -35 26 -17 -5 38 -69 l56 -65 -69 70 c-67 68 -207 255 -219 292 -3 10 11 -2 33 -27 21 -24 38 -49 38 -55z m33 78 c-4 -47 13 -73 62 -98 35 -18 50 -31 50 -45 0 -12 -7 -20 -17 -20 -14 0 -15 2 -4 9 20 13 6 28 -48 56 -27 13 -51 31 -55 40 -8 22 -8 60 1 68 10 11 12 9 11 -10z m72 -30 l45 -48 -50 45 c-27 25 -52 46 -54 48 -2 1 0 2 5 2 6 0 30 -21 54 -47z m-918 -88 c32 -27 32 -27 3 -10 -43 25 -75 56 -91 87 -27 52 -14 52 21 1 19 -28 49 -63 67 -78z m58 8 c-1 -13 -5 -9 -17 12 -8 17 -29 46 -47 65 -17 20 -10 15 17 -11 26 -26 47 -56 47 -66z m415 72 c14 -25 45 -59 67 -75 23 -17 37 -30 31 -30 -35 0 -133 101 -133 138 0 21 7 14 35 -33z m218 -52 c43 -45 61 -54 50 -27 -4 12 -2 15 8 12 8 -3 15 -12 17 -21 5 -25 -41 -14 -85 21 -21 16 -54 47 -73 69 -19 21 -23 27 -9 15 l26 -23 -4 28 -4 28 17 -30 c9 -16 35 -49 57 -72z m-854 -7 c30 -31 38 -44 23 -36 -40 20 -102 89 -102 112 0 22 0 22 16 -2 10 -14 38 -47 63 -74z m906 54 c21 -22 37 -40 34 -40 -3 0 -23 18 -44 40 -21 22 -37 40 -34 40 3 0 23 -18 44 -40z m-1748 -32 c-2 -13 -4 -5 -4 17 -1 22 1 32 4 23 2 -10 2 -28 0 -40z m938 -28 c3 -5 4 -10 1 -10 -3 0 -8 5 -11 10 -3 6 -4 10 -1 10 3 0 8 -4 11 -10z m-896 -55 c9 -12 4 -8 -11 7 -16 16 -28 34 -28 41 0 6 6 3 12 -8 6 -11 18 -29 27 -40z m1136 35 c3 -5 4 -10 1 -10 -3 0 -8 5 -11 10 -3 6 -4 10 -1 10 3 0 8 -4 11 -10z m230 0 c3 -5 4 -10 1 -10 -3 0 -8 5 -11 10 -3 6 -4 10 -1 10 3 0 8 -4 11 -10z m480 0 c3 -5 4 -10 1 -10 -3 0 -8 5 -11 10 -3 6 -4 10 -1 10 3 0 8 -4 11 -10z m120 0 c3 -5 4 -10 1 -10 -3 0 -8 5 -11 10 -3 6 -4 10 -1 10 3 0 8 -4 11 -10z m-1748 -26 c-3 -3 -12 -4 -19 -1 -8 3 -5 6 6 6 11 1 17 -2 13 -5z m76 -1 c-7 -2 -19 -2 -25 0 -7 3 -2 5 12 5 14 0 19 -2 13 -5z m-123 -15 c-8 -7 -20 -20 -28 -28 -11 -13 -12 -12 -3 7 9 18 23 29 41 32 2 1 -2 -5 -10 -11z m210 -13 c17 -9 30 -18 30 -21 0 -4 -59 23 -69 32 -10 9 13 3 39 -11z m55 -35 c3 -5 4 -10 1 -10 -3 0 -8 5 -11 10 -3 6 -4 10 -1 10 3 0 8 -4 11 -10z m-308 -37 c-3 -10 -5 -4 -5 12 0 17 2 24 5 18 2 -7 2 -21 0 -30z m592 -22 c20 -11 54 -38 74 -60 40 -45 47 -82 22 -117 -8 -12 -13 -23 -12 -25 1 -2 0 -3 -2 -2 -2 1 -16 -4 -32 -12 -15 -8 -34 -15 -41 -15 -7 1 1 7 18 14 36 16 64 51 64 82 0 33 -41 86 -94 122 -54 36 -53 41 3 13z m-506 -105 c36 -33 37 -35 9 -16 -35 23 -92 95 -92 114 0 6 9 -5 21 -24 11 -19 39 -52 62 -74z m1082 54 c3 -5 4 -10 1 -10 -3 0 -8 5 -11 10 -3 6 -4 10 -1 10 3 0 8 -4 11 -10z m710 0 c3 -5 4 -10 1 -10 -3 0 -8 5 -11 10 -3 6 -4 10 -1 10 3 0 8 -4 11 -10z m15 -24 c0 -3 -5 -8 -12 -12 -7 -4 -8 -3 -4 4 7 12 16 16 16 8z m-1720 -92 c0 -2 -9 0 -20 6 -11 6 -20 13 -20 16 0 2 9 0 20 -6 11 -6 20 -13 20 -16z m100 -39 c19 -7 28 -14 20 -14 -8 0 -28 6 -45 14 -39 17 -21 18 25 0z m57 -22 c-4 -3 -10 -3 -14 0 -3 4 0 7 7 7 7 0 10 -3 7 -7z m420 1 c-3 -3 -12 -4 -19 -1 -8 3 -5 6 6 6 11 1 17 -2 13 -5z m70 0 c-3 -3 -12 -4 -19 -1 -8 3 -5 6 6 6 11 1 17 -2 13 -5z m-440 -10 c-3 -3 -12 -4 -19 -1 -8 3 -5 6 6 6 11 1 17 -2 13 -5z m200 -1 c-4 -3 -10 -3 -14 0 -3 4 0 7 7 7 7 0 10 -3 7 -7z m-79 -10 c-16 -2 -40 -2 -55 0 -16 2 -3 4 27 4 30 0 43 -2 28 -4z"/>
</g>
<g id="layer110" fill="#ceab3e" stroke="none">
<path d="M0 895 l0 -895 1700 0 1700 0 0 895 0 895 -1700 0 -1700 0 0 -895z m978 218 l-3 -288 -240 0 c-207 0 -244 -2 -271 -17 -71 -39 -84 -107 -30 -166 l34 -37 241 -3 c143 -2 241 -7 241 -13 0 -5 -90 -9 -225 -9 -182 0 -232 3 -264 16 -40 16 -71 50 -71 78 0 38 -70 12 -96 -36 -29 -51 -13 -103 43 -140 25 -16 52 -18 261 -18 148 0 232 -4 232 -10 0 -6 -84 -10 -232 -10 -261 0 -282 5 -325 69 -23 34 -23 38 -23 345 0 304 1 312 23 351 17 30 34 44 67 56 35 13 46 22 48 42 2 14 14 37 27 51 l24 26 271 0 270 0 -2 -287z m1434 42 c58 -71 117 -141 132 -154 14 -14 26 -30 26 -36 0 -6 14 -24 30 -40 17 -16 30 -33 30 -39 0 -5 -24 13 -52 42 -29 29 -62 59 -73 67 -19 14 -19 15 -1 8 11 -3 -35 58 -102 138 -67 79 -122 151 -122 159 0 18 -2 21 132 -145z m-1049 -2 c-7 -2 -21 -2 -30 0 -10 3 -4 5 12 5 17 0 24 -2 18 -5z m-76 -10 c-4 -3 -10 -3 -14 0 -3 4 0 7 7 7 7 0 10 -3 7 -7z m130 1 c-3 -3 -12 -4 -19 -1 -8 3 -5 6 6 6 11 1 17 -2 13 -5z m113 -40 c102 -49 162 -97 222 -177 43 -58 55 -68 89 -73 49 -8 60 -21 13 -16 -19 2 -34 1 -34 -3 0 -17 94 -137 137 -175 l48 -42 -45 30 c-61 40 -98 78 -239 241 -131 152 -183 200 -252 230 -24 11 -37 21 -29 21 9 0 49 -16 90 -36z m-312 -3 c-13 -15 -25 -27 -27 -25 -4 4 39 54 47 54 2 0 -7 -13 -20 -29z m469 2 c-4 -3 -10 -3 -14 0 -3 4 0 7 7 7 7 0 10 -3 7 -7z m141 -13 c70 -32 103 -60 123 -105 15 -35 17 -48 8 -74 -6 -17 -20 -36 -31 -42 -18 -10 -18 -9 2 19 25 34 23 57 -9 109 -23 36 -82 78 -138 99 -22 7 -30 13 -18 13 11 0 39 -8 63 -19z m-168 6 c0 -3 -5 -8 -12 -12 -7 -4 -8 -3 -4 4 7 12 16 16 16 8z m403 -55 c20 -19 37 -44 37 -56 -1 -20 -1 -20 -12 0 -6 11 -31 42 -57 69 -49 53 -31 45 32 -13z m198 17 c19 -24 34 -46 34 -50 0 -3 4 -10 9 -15 6 -5 6 -2 1 7 -8 13 -6 13 8 1 9 -7 14 -18 11 -23 -4 -6 24 -42 62 -81 38 -40 54 -59 37 -42 -53 47 -38 15 28 -60 60 -69 60 -69 -17 11 -44 44 -112 129 -152 187 -73 107 -85 144 -21 65z m65 34 c-3 -5 -1 -25 5 -45 8 -29 19 -42 52 -58 23 -12 45 -27 49 -33 13 -19 9 -36 -9 -36 -14 0 -15 2 -5 9 17 11 -5 34 -58 61 -21 10 -40 26 -44 35 -10 26 -7 75 5 75 5 0 8 -4 5 -8z m69 -34 l40 -43 -45 40 c-25 22 -47 41 -49 43 -2 1 0 2 5 2 6 0 28 -19 49 -42z m211 -31 c33 -36 46 -87 23 -87 -5 0 -7 5 -4 10 9 15 -19 57 -74 109 -42 40 -43 43 -13 25 19 -10 49 -36 68 -57z m170 -19 c21 -23 31 -44 28 -53 -5 -12 -10 -10 -21 12 -8 15 -27 42 -44 58 -16 18 -29 42 -29 55 1 24 1 24 17 -5 9 -16 31 -47 49 -67z m229 -3 c1 -5 7 -9 14 -7 7 1 10 -2 6 -8 -3 -6 22 -40 57 -77 35 -37 55 -61 46 -54 -35 26 -17 -5 38 -69 l56 -65 -69 70 c-67 68 -207 255 -219 292 -3 10 11 -2 33 -27 21 -24 38 -49 38 -55z m33 78 c-4 -47 13 -73 62 -98 35 -18 50 -31 50 -45 0 -12 -7 -20 -17 -20 -14 0 -15 2 -4 9 20 13 6 28 -48 56 -27 13 -51 31 -55 40 -8 22 -8 60 1 68 10 11 12 9 11 -10z m72 -30 l45 -48 -50 45 c-27 25 -52 46 -54 48 -2 1 0 2 5 2 6 0 30 -21 54 -47z m-918 -88 c32 -27 32 -27 3 -10 -43 25 -75 56 -91 87 -27 52 -14 52 21 1 19 -28 49 -63 67 -78z m58 8 c-1 -13 -5 -9 -17 12 -8 17 -29 46 -47 65 -17 20 -10 15 17 -11 26 -26 47 -56 47 -66z m415 72 c14 -25 45 -59 67 -75 23 -17 37 -30 31 -30 -35 0 -133 101 -133 138 0 21 7 14 35 -33z m218 -52 c43 -45 61 -54 50 -27 -4 12 -2 15 8 12 8 -3 15 -12 17 -21 5 -25 -41 -14 -85 21 -21 16 -54 47 -73 69 -19 21 -23 27 -9 15 l26 -23 -4 28 -4 28 17 -30 c9 -16 35 -49 57 -72z m-854 -7 c30 -31 38 -44 23 -36 -40 20 -102 89 -102 112 0 22 0 22 16 -2 10 -14 38 -47 63 -74z m906 54 c21 -22 37 -40 34 -40 -3 0 -23 18 -44 40 -21 22 -37 40 -34 40 3 0 23 -18 44 -40z m-1748 -32 c-2 -13 -4 -5 -4 17 -1 22 1 32 4 23 2 -10 2 -28 0 -40z m938 -28 c3 -5 4 -10 1 -10 -3 0 -8 5 -11 10 -3 6 -4 10 -1 10 3 0 8 -4 11 -10z m-896 -55 c9 -12 4 -8 -11 7 -16 16 -28 34 -28 41 0 6 6 3 12 -8 6 -11 18 -29 27 -40z m1136 35 c3 -5 4 -10 1 -10 -3 0 -8 5 -11 10 -3 6 -4 10 -1 10 3 0 8 -4 11 -10z m230 0 c3 -5 4 -10 1 -10 -3 0 -8 5 -11 10 -3 6 -4 10 -1 10 3 0 8 -4 11 -10z m480 0 c3 -5 4 -10 1 -10 -3 0 -8 5 -11 10 -3 6 -4 10 -1 10 3 0 8 -4 11 -10z m120 0 c3 -5 4 -10 1 -10 -3 0 -8 5 -11 10 -3 6 -4 10 -1 10 3 0 8 -4 11 -10z m-1748 -26 c-3 -3 -12 -4 -19 -1 -8 3 -5 6 6 6 11 1 17 -2 13 -5z m76 -1 c-7 -2 -19 -2 -25 0 -7 3 -2 5 12 5 14 0 19 -2 13 -5z m-123 -15 c-8 -7 -20 -20 -28 -28 -11 -13 -12 -12 -3 7 9 18 23 29 41 32 2 1 -2 -5 -10 -11z m210 -13 c17 -9 30 -18 30 -21 0 -4 -59 23 -69 32 -10 9 13 3 39 -11z m55 -35 c3 -5 4 -10 1 -10 -3 0 -8 5 -11 10 -3 6 -4 10 -1 10 3 0 8 -4 11 -10z m-308 -37 c-3 -10 -5 -4 -5 12 0 17 2 24 5 18 2 -7 2 -21 0 -30z m592 -22 c20 -11 54 -38 74 -60 40 -45 47 -82 22 -117 -8 -12 -13 -23 -12 -25 1 -2 0 -3 -2 -2 -2 1 -16 -4 -32 -12 -15 -8 -34 -15 -41 -15 -7 1 1 7 18 14 36 16 64 51 64 82 0 33 -41 86 -94 122 -54 36 -53 41 3 13z m-506 -105 c36 -33 37 -35 9 -16 -35 23 -92 95 -92 114 0 6 9 -5 21 -24 11 -19 39 -52 62 -74z m1082 54 c3 -5 4 -10 1 -10 -3 0 -8 5 -11 10 -3 6 -4 10 -1 10 3 0 8 -4 11 -10z m710 0 c3 -5 4 -10 1 -10 -3 0 -8 5 -11 10 -3 6 -4 10 -1 10 3 0 8 -4 11 -10z m15 -24 c0 -3 -5 -8 -12 -12 -7 -4 -8 -3 -4 4 7 12 16 16 16 8z m-2300 -26 c0 -6 -83 -10 -230 -10 -147 0 -230 4 -230 10 0 6 83 10 230 10 147 0 230 -4 230 -10z m580 -66 c0 -2 -9 0 -20 6 -11 6 -20 13 -20 16 0 2 9 0 20 -6 11 -6 20 -13 20 -16z m100 -39 c19 -7 28 -14 20 -14 -8 0 -28 6 -45 14 -39 17 -21 18 25 0z m57 -22 c-4 -3 -10 -3 -14 0 -3 4 0 7 7 7 7 0 10 -3 7 -7z m420 1 c-3 -3 -12 -4 -19 -1 -8 3 -5 6 6 6 11 1 17 -2 13 -5z m70 0 c-3 -3 -12 -4 -19 -1 -8 3 -5 6 6 6 11 1 17 -2 13 -5z m-440 -10 c-3 -3 -12 -4 -19 -1 -8 3 -5 6 6 6 11 1 17 -2 13 -5z m200 -1 c-4 -3 -10 -3 -14 0 -3 4 0 7 7 7 7 0 10 -3 7 -7z m-79 -10 c-16 -2 -40 -2 -55 0 -16 2 -3 4 27 4 30 0 43 -2 28 -4z"/>
</g>
<g id="layer111" fill="#9f7ba4" stroke="none">
<path d="M0 895 l0 -895 1700 0 1700 0 0 895 0 895 -1700 0 -1700 0 0 -895z m848 518 c-71 -2 -185 -2 -255 0 -71 1 -13 3 127 3 140 0 198 -2 128 -3z m130 -300 l-3 -288 -240 0 c-207 0 -244 -2 -271 -17 -71 -39 -84 -107 -30 -166 l34 -37 241 -3 c143 -2 241 -7 241 -13 0 -5 -90 -9 -225 -9 -182 0 -232 3 -264 16 -40 16 -71 50 -71 78 0 38 -70 12 -96 -36 -29 -51 -13 -103 43 -140 25 -16 52 -18 261 -18 148 0 232 -4 232 -10 0 -6 -84 -10 -232 -10 -261 0 -282 5 -325 69 -23 33 -23 38 -23 343 0 291 1 311 20 349 12 22 33 45 48 52 15 6 29 14 32 17 3 3 12 5 20 5 9 0 16 11 18 27 2 14 14 38 27 52 l24 26 271 0 270 0 -2 -287z m1434 42 c58 -71 117 -141 132 -154 14 -14 26 -30 26 -36 0 -6 14 -24 30 -40 17 -16 30 -33 30 -39 0 -5 -24 13 -52 42 -29 29 -62 59 -73 67 -19 14 -19 15 -1 8 11 -3 -35 58 -102 138 -67 79 -122 151 -122 159 0 18 -2 21 132 -145z m-1049 -2 c-7 -2 -21 -2 -30 0 -10 3 -4 5 12 5 17 0 24 -2 18 -5z m-76 -10 c-4 -3 -10 -3 -14 0 -3 4 0 7 7 7 7 0 10 -3 7 -7z m130 1 c-3 -3 -12 -4 -19 -1 -8 3 -5 6 6 6 11 1 17 -2 13 -5z m113 -40 c102 -49 162 -97 222 -177 43 -58 55 -68 89 -73 49 -8 60 -21 13 -16 -19 2 -34 1 -34 -3 0 -17 94 -137 137 -175 l48 -42 -45 30 c-61 40 -98 78 -239 241 -131 152 -183 200 -252 230 -24 11 -37 21 -29 21 9 0 49 -16 90 -36z m-312 -3 c-13 -15 -25 -27 -27 -25 -4 4 39 54 47 54 2 0 -7 -13 -20 -29z m469 2 c-4 -3 -10 -3 -14 0 -3 4 0 7 7 7 7 0 10 -3 7 -7z m141 -13 c70 -32 103 -60 123 -105 15 -35 17 -48 8 -74 -6 -17 -20 -36 -31 -42 -18 -10 -18 -9 2 19 25 34 23 57 -9 109 -23 36 -82 78 -138 99 -22 7 -30 13 -18 13 11 0 39 -8 63 -19z m-168 6 c0 -3 -5 -8 -12 -12 -7 -4 -8 -3 -4 4 7 12 16 16 16 8z m403 -55 c20 -19 37 -44 37 -56 -1 -20 -1 -20 -12 0 -6 11 -31 42 -57 69 -49 53 -31 45 32 -13z m198 17 c19 -24 34 -46 34 -50 0 -3 4 -10 9 -15 6 -5 6 -2 1 7 -8 13 -6 13 8 1 9 -7 14 -18 11 -23 -4 -6 24 -42 62 -81 38 -40 54 -59 37 -42 -53 47 -38 15 28 -60 60 -69 60 -69 -17 11 -44 44 -112 129 -152 187 -73 107 -85 144 -21 65z m65 34 c-3 -5 -1 -25 5 -45 8 -29 19 -42 52 -58 23 -12 45 -27 49 -33 13 -19 9 -36 -9 -36 -14 0 -15 2 -5 9 17 11 -5 34 -58 61 -21 10 -40 26 -44 35 -10 26 -7 75 5 75 5 0 8 -4 5 -8z m69 -34 l40 -43 -45 40 c-25 22 -47 41 -49 43 -2 1 0 2 5 2 6 0 28 -19 49 -42z m211 -31 c33 -36 46 -87 23 -87 -5 0 -7 5 -4 10 9 15 -19 57 -74 109 -42 40 -43 43 -13 25 19 -10 49 -36 68 -57z m170 -19 c21 -23 31 -44 28 -53 -5 -12 -10 -10 -21 12 -8 15 -27 42 -44 58 -16 18 -29 42 -29 55 1 24 1 24 17 -5 9 -16 31 -47 49 -67z m229 -3 c1 -5 7 -9 14 -7 7 1 10 -2 6 -8 -3 -6 22 -40 57 -77 35 -37 55 -61 46 -54 -35 26 -17 -5 38 -69 l56 -65 -69 70 c-67 68 -207 255 -219 292 -3 10 11 -2 33 -27 21 -24 38 -49 38 -55z m33 78 c-4 -47 13 -73 62 -98 35 -18 50 -31 50 -45 0 -12 -7 -20 -17 -20 -14 0 -15 2 -4 9 20 13 6 28 -48 56 -27 13 -51 31 -55 40 -8 22 -8 60 1 68 10 11 12 9 11 -10z m72 -30 l45 -48 -50 45 c-27 25 -52 46 -54 48 -2 1 0 2 5 2 6 0 30 -21 54 -47z m-918 -88 c32 -27 32 -27 3 -10 -43 25 -75 56 -91 87 -27 52 -14 52 21 1 19 -28 49 -63 67 -78z m58 8 c-1 -13 -5 -9 -17 12 -8 17 -29 46 -47 65 -17 20 -10 15 17 -11 26 -26 47 -56 47 -66z m415 72 c14 -25 45 -59 67 -75 23 -17 37 -30 31 -30 -35 0 -133 101 -133 138 0 21 7 14 35 -33z m218 -52 c43 -45 61 -54 50 -27 -4 12 -2 15 8 12 8 -3 15 -12 17 -21 5 -25 -41 -14 -85 21 -21 16 -54 47 -73 69 -19 21 -23 27 -9 15 l26 -23 -4 28 -4 28 17 -30 c9 -16 35 -49 57 -72z m-854 -7 c30 -31 38 -44 23 -36 -40 20 -102 89 -102 112 0 22 0 22 16 -2 10 -14 38 -47 63 -74z m906 54 c21 -22 37 -40 34 -40 -3 0 -23 18 -44 40 -21 22 -37 40 -34 40 3 0 23 -18 44 -40z m-1748 -32 c-2 -13 -4 -5 -4 17 -1 22 1 32 4 23 2 -10 2 -28 0 -40z m938 -28 c3 -5 4 -10 1 -10 -3 0 -8 5 -11 10 -3 6 -4 10 -1 10 3 0 8 -4 11 -10z m-896 -55 c9 -12 4 -8 -11 7 -16 16 -28 34 -28 41 0 6 6 3 12 -8 6 -11 18 -29 27 -40z m1136 35 c3 -5 4 -10 1 -10 -3 0 -8 5 -11 10 -3 6 -4 10 -1 10 3 0 8 -4 11 -10z m230 0 c3 -5 4 -10 1 -10 -3 0 -8 5 -11 10 -3 6 -4 10 -1 10 3 0 8 -4 11 -10z m480 0 c3 -5 4 -10 1 -10 -3 0 -8 5 -11 10 -3 6 -4 10 -1 10 3 0 8 -4 11 -10z m120 0 c3 -5 4 -10 1 -10 -3 0 -8 5 -11 10 -3 6 -4 10 -1 10 3 0 8 -4 11 -10z m-1748 -26 c-3 -3 -12 -4 -19 -1 -8 3 -5 6 6 6 11 1 17 -2 13 -5z m76 -1 c-7 -2 -19 -2 -25 0 -7 3 -2 5 12 5 14 0 19 -2 13 -5z m-123 -15 c-8 -7 -20 -20 -28 -28 -11 -13 -12 -12 -3 7 9 18 23 29 41 32 2 1 -2 -5 -10 -11z m210 -13 c17 -9 30 -18 30 -21 0 -4 -59 23 -69 32 -10 9 13 3 39 -11z m55 -35 c3 -5 4 -10 1 -10 -3 0 -8 5 -11 10 -3 6 -4 10 -1 10 3 0 8 -4 11 -10z m-308 -37 c-3 -10 -5 -4 -5 12 0 17 2 24 5 18 2 -7 2 -21 0 -30z m592 -22 c20 -11 54 -38 74 -60 40 -45 47 -82 22 -117 -8 -12 -13 -23 -12 -25 1 -2 0 -3 -2 -2 -2 1 -16 -4 -32 -12 -15 -8 -34 -15 -41 -15 -7 1 1 7 18 14 36 16 64 51 64 82 0 33 -41 86 -94 122 -54 36 -53 41 3 13z m-506 -105 c36 -33 37 -35 9 -16 -35 23 -92 95 -92 114 0 6 9 -5 21 -24 11 -19 39 -52 62 -74z m1082 54 c3 -5 4 -10 1 -10 -3 0 -8 5 -11 10 -3 6 -4 10 -1 10 3 0 8 -4 11 -10z m710 0 c3 -5 4 -10 1 -10 -3 0 -8 5 -11 10 -3 6 -4 10 -1 10 3 0 8 -4 11 -10z m15 -24 c0 -3 -5 -8 -12 -12 -7 -4 -8 -3 -4 4 7 12 16 16 16 8z m-2300 -24 c0 -12 -300 -24 -388 -16 -140 13 -69 24 158 24 127 0 230 -4 230 -8z m580 -68 c0 -2 -9 0 -20 6 -11 6 -20 13 -20 16 0 2 9 0 20 -6 11 -6 20 -13 20 -16z m100 -39 c19 -7 28 -14 20 -14 -8 0 -28 6 -45 14 -39 17 -21 18 25 0z m57 -22 c-4 -3 -10 -3 -14 0 -3 4 0 7 7 7 7 0 10 -3 7 -7z m420 1 c-3 -3 -12 -4 -19 -1 -8 3 -5 6 6 6 11 1 17 -2 13 -5z m70 0 c-3 -3 -12 -4 -19 -1 -8 3 -5 6 6 6 11 1 17 -2 13 -5z m-440 -10 c-3 -3 -12 -4 -19 -1 -8 3 -5 6 6 6 11 1 17 -2 13 -5z m200 -1 c-4 -3 -10 -3 -14 0 -3 4 0 7 7 7 7 0 10 -3 7 -7z m-79 -10 c-16 -2 -40 -2 -55 0 -16 2 -3 4 27 4 30 0 43 -2 28 -4z"/>
<path d="M2360 906 c0 -2 8 -10 18 -17 15 -13 16 -12 3 4 -13 16 -21 21 -21 13z"/>
</g>
<g id="layer112" fill="#9e85a1" stroke="none">
<path d="M0 895 l0 -895 1700 0 1700 0 0 895 0 895 -1700 0 -1700 0 0 -895z m848 518 c-71 -2 -185 -2 -255 0 -71 1 -13 3 127 3 140 0 198 -2 128 -3z m130 -300 l-3 -288 -240 0 c-207 0 -244 -2 -271 -17 -71 -39 -84 -107 -30 -166 l34 -37 241 -3 c143 -2 241 -7 241 -13 0 -5 -90 -9 -225 -9 -182 0 -232 3 -264 16 -40 16 -71 50 -71 78 0 38 -70 12 -96 -36 -29 -51 -13 -103 43 -140 25 -16 52 -18 261 -18 148 0 232 -4 232 -10 0 -6 -84 -10 -232 -10 -261 0 -282 5 -325 69 -23 33 -23 38 -23 343 0 291 1 311 20 349 12 22 33 45 48 52 15 6 29 14 32 17 3 3 12 5 20 5 9 0 16 11 18 27 2 14 14 38 27 52 l24 26 271 0 270 0 -2 -287z m1434 42 c59 -71 118 -141 132 -154 14 -14 26 -29 26 -35 0 -5 14 -25 32 -43 57 -59 24 -43 -44 22 -37 35 -60 61 -52 58 9 -3 -38 59 -105 138 -66 79 -121 151 -121 159 0 18 -4 22 132 -145z m-1054 -2 c-10 -2 -26 -2 -35 0 -10 3 -2 5 17 5 19 0 27 -2 18 -5z m-71 -10 c-4 -3 -10 -3 -14 0 -3 4 0 7 7 7 7 0 10 -3 7 -7z m242 -38 c104 -49 161 -95 223 -176 45 -59 59 -70 91 -76 47 -7 57 -20 11 -15 -19 2 -34 2 -34 -1 0 -17 98 -142 138 -178 56 -49 38 -42 -36 15 -29 23 -110 108 -179 189 -170 200 -217 240 -318 274 -40 13 -40 13 -5 8 19 -3 68 -21 109 -40z m-302 2 c-18 -18 -34 -31 -36 -30 -6 4 51 63 60 63 4 0 -7 -15 -24 -33z m500 6 c-4 -3 -10 -3 -14 0 -3 4 0 7 7 7 7 0 10 -3 7 -7z m-40 -10 c-4 -3 -10 -3 -14 0 -3 4 0 7 7 7 7 0 10 -3 7 -7z m162 -24 c75 -38 113 -84 115 -140 1 -33 -5 -46 -27 -65 -40 -34 -51 -30 -16 5 16 16 29 38 29 48 -1 56 -94 149 -174 172 -22 7 -25 9 -10 10 11 1 49 -13 83 -30z m876 21 c-8 -12 6 -37 49 -89 21 -24 33 -48 29 -57 -4 -11 -9 -8 -20 13 -8 15 -35 50 -61 77 -26 28 -40 44 -31 38 14 -10 17 -9 22 8 3 11 8 20 12 20 3 0 3 -4 0 -10z m-1065 -4 c0 -2 -8 -10 -17 -17 -16 -13 -17 -12 -4 4 13 16 21 21 21 13z m359 -97 c64 -66 65 -74 4 -29 -51 37 -73 71 -72 107 2 26 2 26 6 4 3 -13 30 -50 62 -82z m76 10 c28 -30 39 -45 26 -34 l-24 20 7 -25 c6 -22 5 -21 -10 5 -9 17 -37 52 -63 79 -34 37 -38 44 -16 28 17 -11 53 -44 80 -73z m116 27 c35 -32 58 -56 52 -52 -8 5 -13 1 -13 -11 -1 -12 -8 -5 -20 18 -10 19 -38 53 -61 74 -23 21 -38 36 -32 34 5 -2 39 -31 74 -63z m50 22 c19 -24 34 -46 34 -50 0 -3 4 -10 9 -15 6 -5 6 -2 1 7 -8 13 -6 13 8 1 9 -7 14 -18 11 -23 -4 -6 27 -44 67 -86 41 -42 59 -63 42 -47 -52 45 -39 15 23 -56 46 -52 42 -49 -22 17 -44 44 -112 129 -152 187 -73 107 -85 144 -21 65z m65 34 c-3 -5 -1 -25 5 -46 8 -29 19 -41 59 -61 35 -18 50 -31 50 -45 0 -12 -7 -20 -17 -20 -14 0 -15 2 -5 9 17 11 -5 34 -58 61 -21 10 -40 26 -44 35 -10 26 -7 75 5 75 5 0 8 -4 5 -8z m74 -39 l45 -48 -50 45 c-27 25 -52 46 -54 48 -2 1 0 2 5 2 6 0 30 -21 54 -47z m139 33 c42 -22 101 -92 101 -121 0 -30 -30 -34 -51 -7 -11 14 -11 15 1 5 16 -15 40 -17 40 -5 0 17 -73 102 -104 122 -36 23 -28 27 13 6z m476 -87 c0 -4 4 -11 9 -16 5 -5 6 -2 1 6 -5 9 -4 12 3 7 6 -4 9 -13 6 -20 -3 -8 31 -47 83 -96 48 -45 67 -66 41 -45 -27 21 -48 33 -48 29 0 -5 25 -38 56 -74 l56 -65 -69 70 c-66 68 -207 255 -219 292 -4 10 13 -4 37 -32 24 -27 44 -52 44 -56z m23 84 c-4 -47 13 -73 62 -98 35 -18 50 -31 50 -45 0 -12 -7 -20 -17 -20 -14 0 -15 2 -5 9 17 11 -5 34 -58 61 -21 10 -40 26 -44 35 -8 22 -8 60 1 68 10 11 12 9 11 -10z m77 -35 l50 -53 -55 50 c-30 28 -57 51 -59 53 -2 1 0 2 5 2 5 0 32 -24 59 -52z m-999 11 c8 -17 36 -52 62 -78 35 -34 39 -41 17 -27 -59 37 -105 92 -105 126 0 18 9 11 26 -21z m549 -14 c14 -25 45 -59 67 -75 23 -17 37 -30 31 -30 -35 0 -133 101 -133 138 0 21 7 14 35 -33z m148 22 l-4 28 17 -30 c18 -33 94 -115 106 -115 4 0 5 7 1 16 -4 12 -2 15 8 12 8 -3 15 -12 17 -21 5 -25 -41 -14 -85 21 -21 17 -56 50 -78 74 -25 27 -29 33 -9 15 l31 -28 -4 28z m157 -64 c0 -8 -9 0 -50 45 l-45 47 48 -45 c26 -24 47 -45 47 -47z m-1783 5 c-2 -13 -4 -5 -4 17 -1 22 1 32 4 23 2 -10 2 -28 0 -40z m42 -83 c9 -12 4 -8 -11 7 -16 16 -28 34 -28 41 0 6 6 3 12 -8 6 -11 18 -29 27 -40z m1136 35 c10 -11 16 -20 13 -20 -3 0 -13 9 -23 20 -10 11 -16 20 -13 20 3 0 13 -9 23 -20z m116 3 c13 -16 12 -17 -3 -4 -17 13 -22 21 -14 21 2 0 10 -8 17 -17z m594 -3 c10 -11 16 -20 13 -20 -3 0 -13 9 -23 20 -10 11 -16 20 -13 20 3 0 13 -9 23 -20z m116 3 c13 -16 12 -17 -3 -4 -10 7 -18 15 -18 17 0 8 8 3 21 -13z m-906 -3 c3 -5 4 -10 1 -10 -3 0 -8 5 -11 10 -3 6 -4 10 -1 10 3 0 8 -4 11 -10z m-795 -27 c-68 -5 -88 -11 -110 -36 -16 -17 -20 -18 -14 -4 11 29 55 46 114 45 51 -1 52 -2 10 -5z m67 -10 c-4 -3 -10 -3 -14 0 -3 4 0 7 7 7 7 0 10 -3 7 -7z m63 -23 c21 -11 42 -25 46 -31 5 -9 -73 31 -95 48 -13 10 15 0 49 -17z m-263 -67 c-3 -10 -5 -4 -5 12 0 17 2 24 5 18 2 -7 2 -21 0 -30z m592 -22 c20 -11 54 -38 74 -60 40 -45 47 -82 22 -117 -8 -12 -13 -23 -12 -25 1 -2 0 -3 -2 -2 -2 1 -16 -4 -32 -12 -15 -8 -34 -15 -41 -15 -7 1 1 7 19 15 91 39 74 137 -35 206 -53 33 -49 38 7 10z m-506 -105 c36 -33 37 -35 9 -16 -35 23 -92 95 -92 114 0 6 9 -5 21 -24 11 -19 39 -52 62 -74z m1078 57 c13 -16 12 -17 -3 -4 -17 13 -22 21 -14 21 2 0 10 -8 17 -17z m714 -3 c3 -5 4 -10 1 -10 -3 0 -8 5 -11 10 -3 6 -4 10 -1 10 3 0 8 -4 11 -10z m-695 -24 c0 -3 -5 -8 -12 -12 -7 -4 -8 -3 -4 4 7 12 16 16 16 8z m710 0 c0 -3 -5 -8 -12 -12 -7 -4 -8 -3 -4 4 7 12 16 16 16 8z m-2300 -24 c0 -12 -300 -24 -388 -16 -140 13 -69 24 158 24 127 0 230 -4 230 -8z m580 -68 c0 -2 -9 0 -20 6 -11 6 -20 13 -20 16 0 2 9 0 20 -6 11 -6 20 -13 20 -16z m85 -34 c28 -10 43 -19 35 -19 -14 0 -101 36 -90 38 3 1 28 -8 55 -19z m452 -17 c-4 -3 -10 -3 -14 0 -3 4 0 7 7 7 7 0 10 -3 7 -7z m-380 -10 c-4 -3 -10 -3 -14 0 -3 4 0 7 7 7 7 0 10 -3 7 -7z m420 1 c-3 -3 -12 -4 -19 -1 -8 3 -5 6 6 6 11 1 17 -2 13 -5z m70 0 c-3 -3 -12 -4 -19 -1 -8 3 -5 6 6 6 11 1 17 -2 13 -5z m-440 -10 c-3 -3 -12 -4 -19 -1 -8 3 -5 6 6 6 11 1 17 -2 13 -5z m200 0 c-3 -3 -12 -4 -19 -1 -8 3 -5 6 6 6 11 1 17 -2 13 -5z m-74 -11 c-18 -2 -48 -2 -65 0 -18 2 -4 4 32 4 36 0 50 -2 33 -4z"/>
</g>
<g id="layer113" fill="#fec407" stroke="none">
<path d="M0 895 l0 -895 1700 0 1700 0 0 895 0 895 -1700 0 -1700 0 0 -895z m848 518 c-71 -2 -185 -2 -255 0 -71 1 -13 3 127 3 140 0 198 -2 128 -3z m130 -300 l-3 -288 -240 0 c-207 0 -244 -2 -271 -17 -71 -39 -84 -107 -30 -166 l34 -37 241 -3 c143 -2 241 -7 241 -13 0 -5 -90 -9 -225 -9 -182 0 -232 3 -264 16 -40 16 -71 50 -71 78 0 38 -70 12 -96 -36 -29 -51 -13 -103 43 -140 25 -16 52 -18 261 -18 148 0 232 -4 232 -10 0 -6 -84 -10 -232 -10 -261 0 -282 5 -325 69 -23 33 -23 38 -23 343 0 291 1 311 20 349 12 22 33 45 48 52 15 6 29 14 32 17 3 3 12 5 20 5 9 0 16 11 18 27 2 14 14 38 27 52 l24 26 271 0 270 0 -2 -287z m1397 87 c61 -75 83 -95 104 -96 59 -1 161 -89 161 -139 0 -30 -30 -34 -51 -7 -11 14 -11 15 1 5 16 -15 40 -17 40 -5 0 5 -15 27 -32 50 -41 54 -105 99 -119 85 -7 -7 6 -28 40 -65 28 -31 51 -59 51 -64 0 -4 14 -23 32 -41 57 -59 24 -43 -44 22 -37 35 -60 61 -52 58 9 -3 -38 59 -105 138 -66 79 -121 151 -121 159 0 17 0 18 95 -100z m-1017 -47 c-10 -2 -26 -2 -35 0 -10 3 -2 5 17 5 19 0 27 -2 18 -5z m-61 -9 c-3 -3 -12 -4 -19 -1 -8 3 -5 6 6 6 11 1 17 -2 13 -5z m193 -21 c104 -41 196 -108 258 -189 39 -50 63 -71 86 -78 41 -11 84 8 105 45 14 25 13 31 -10 75 -26 52 -94 106 -153 123 -22 7 -25 9 -10 10 34 2 142 -58 169 -93 48 -63 39 -126 -22 -157 l-32 -16 50 -23 c64 -30 129 -100 129 -138 0 -15 -7 -37 -15 -48 -8 -12 -12 -24 -10 -28 3 -3 2 -4 -1 -2 -3 2 -24 -4 -47 -15 -23 -10 -51 -18 -62 -18 -11 0 -2 6 21 13 66 21 69 26 32 48 -62 38 -113 89 -253 250 -149 172 -229 239 -307 256 -24 6 -33 10 -20 11 12 1 54 -11 92 -26z m-266 -17 c-51 -51 -47 -122 9 -183 11 -13 16 -23 11 -23 -5 0 -22 19 -37 42 -39 60 -37 116 4 163 17 19 35 35 39 35 4 0 -7 -15 -26 -34z m509 7 c-7 -2 -19 -2 -25 0 -7 3 -2 5 12 5 14 0 19 -2 13 -5z m-46 -10 c-4 -3 -10 -3 -14 0 -3 4 0 7 7 7 7 0 10 -3 7 -7z m286 0 c-27 -10 -11 -46 45 -103 66 -68 66 -76 0 -26 -52 40 -81 91 -67 118 5 10 15 18 22 17 9 0 9 -2 0 -6z m183 -15 c40 -30 134 -125 134 -135 0 -4 -9 3 -20 17 l-20 25 0 -25 c-1 -24 -1 -24 -14 5 -18 41 -64 94 -101 116 -16 11 -25 19 -19 19 5 0 24 -10 40 -22z m249 -40 l40 -43 -45 43 c-51 47 -85 56 -75 20 4 -13 9 -31 12 -41 2 -9 27 -29 54 -42 34 -18 49 -31 49 -45 0 -29 -28 -25 -74 10 -71 54 -53 20 32 -61 46 -43 80 -79 76 -79 -5 0 -23 14 -41 32 -52 51 -38 19 23 -52 l56 -65 -74 75 c-72 73 -232 289 -222 299 6 6 89 -89 89 -103 0 -5 8 -10 17 -12 9 -1 32 -14 51 -28 19 -14 40 -26 47 -26 20 0 -19 39 -61 61 -40 20 -49 35 -49 79 0 54 32 46 95 -22z m246 49 c-15 -19 36 -97 86 -131 39 -27 39 -35 0 -15 -68 35 -128 129 -96 150 20 12 23 11 10 -4z m74 3 c-8 -13 9 -44 52 -90 28 -32 33 -43 24 -57 -9 -15 -10 -16 -11 -2 0 9 -28 47 -62 85 -34 38 -53 61 -41 51 20 -17 21 -17 26 3 3 11 8 20 12 20 3 0 3 -4 0 -10z m395 -57 l45 -48 -50 48 c-57 53 -75 58 -75 23 0 -41 11 -56 60 -81 60 -30 77 -65 31 -65 -13 0 -13 2 -3 9 17 11 -5 34 -58 61 -40 21 -50 36 -50 80 0 55 32 46 100 -27z m-1460 53 c0 -2 -8 -10 -17 -17 -16 -13 -17 -12 -4 4 13 16 21 21 21 13z m430 -83 c36 -37 52 -56 36 -43 l-28 25 6 -25 c6 -22 5 -21 -10 5 -9 17 -37 52 -63 79 -25 26 -37 44 -26 38 11 -6 49 -41 85 -79z m735 77 c-9 -14 12 -50 58 -97 43 -45 61 -54 50 -27 -4 12 -2 15 8 12 8 -3 15 -12 17 -21 5 -25 -41 -14 -85 21 -21 17 -56 50 -78 74 -31 33 -32 36 -7 13 22 -19 31 -24 27 -12 -7 17 -1 47 10 47 4 0 3 -4 0 -10z m125 1 c0 -5 20 -31 43 -57 24 -27 42 -54 40 -60 -2 -6 36 -49 84 -94 48 -46 67 -66 41 -46 -27 21 -48 34 -48 29 0 -4 25 -37 56 -73 l56 -65 -73 75 c-41 41 -105 119 -142 172 -73 105 -85 128 -68 128 6 0 11 -4 11 -9z m-821 -51 c18 -27 46 -59 62 -71 17 -12 28 -24 25 -27 -9 -8 -95 68 -111 98 -14 27 -19 50 -12 50 2 0 18 -22 36 -50z m841 -37 c0 -8 -9 0 -50 45 l-45 47 48 -45 c26 -24 47 -45 47 -47z m-495 -33 c10 -11 16 -20 13 -20 -3 0 -13 9 -23 20 -10 11 -16 20 -13 20 3 0 13 -9 23 -20z m635 -37 c0 -8 -38 17 -51 33 -9 11 -2 9 19 -6 17 -13 32 -25 32 -27z m81 30 c13 -16 12 -17 -3 -4 -10 7 -18 15 -18 17 0 8 8 3 21 -13z m-1719 -32 c-53 -5 -68 -11 -88 -34 -29 -34 -30 -58 -3 -114 33 -69 139 -141 269 -185 38 -13 44 -17 20 -13 -51 8 -188 77 -237 119 -125 109 -100 238 47 234 l55 -1 -63 -6z m138 -26 c27 -13 52 -30 56 -37 4 -6 -8 -2 -28 10 -19 12 -50 28 -69 36 -19 9 -28 15 -21 16 7 0 35 -11 62 -25z m905 -135 c10 -11 16 -20 13 -20 -3 0 -13 9 -23 20 -10 11 -16 20 -13 20 3 0 13 -9 23 -20z m716 -7 c13 -16 12 -17 -3 -4 -10 7 -18 15 -18 17 0 8 8 3 21 -13z m-691 -27 c0 -3 -5 -8 -12 -12 -7 -4 -8 -3 -4 4 7 12 16 16 16 8z m710 0 c0 -3 -5 -8 -12 -12 -7 -4 -8 -3 -4 4 7 12 16 16 16 8z m-2300 -24 c0 -12 -300 -24 -388 -16 -140 13 -69 24 158 24 127 0 230 -4 230 -8z m1117 -119 c-4 -3 -10 -3 -14 0 -3 4 0 7 7 7 7 0 10 -3 7 -7z m46 -10 c-7 -2 -19 -2 -25 0 -7 3 -2 5 12 5 14 0 19 -2 13 -5z m64 1 c-3 -3 -12 -4 -19 -1 -8 3 -5 6 6 6 11 1 17 -2 13 -5z m-434 -11 c-7 -2 -19 -2 -25 0 -7 3 -2 5 12 5 14 0 19 -2 13 -5z m125 -10 c-21 -2 -55 -2 -75 0 -21 2 -4 4 37 4 41 0 58 -2 38 -4z"/>
<path d="M434 1359 l-29 -30 -3 -251 c-2 -138 1 -255 6 -260 5 -5 22 -1 40 8 27 13 70 15 258 14 158 0 230 3 240 11 19 16 21 508 2 527 -9 9 -78 12 -248 12 l-236 0 -30 -31z"/>
<path d="M314 1236 l-34 -34 0 -250 c0 -145 4 -253 9 -257 5 -3 30 5 55 17 l46 22 0 262 c0 230 -2 263 -16 268 -23 9 -23 9 -60 -28z"/>
</g>
<g id="layer114" fill="#ecbe2e" stroke="none">
<path d="M0 895 l0 -895 1700 0 1700 0 0 895 0 895 -1700 0 -1700 0 0 -895z m978 223 l2 -298 -240 0 c-258 0 -280 -4 -314 -52 -18 -26 -21 -80 -6 -108 22 -41 47 -45 294 -50 184 -4 240 -8 244 -18 3 -10 -45 -12 -251 -10 l-256 3 -31 30 c-17 16 -33 40 -36 52 -8 30 -25 29 -63 -3 -27 -22 -31 -33 -31 -73 0 -37 5 -52 24 -71 36 -33 86 -39 319 -40 162 0 208 -3 204 -12 -3 -10 -60 -13 -243 -13 -361 0 -344 -21 -344 420 0 275 2 314 18 344 18 38 57 71 87 75 11 2 22 14 26 30 9 34 26 54 64 78 27 17 52 18 280 16 l250 -3 3 -297z m1397 82 c61 -75 83 -95 104 -96 59 -1 161 -89 161 -139 0 -30 -30 -34 -51 -7 -11 14 -11 15 1 5 16 -15 40 -17 40 -5 0 5 -15 27 -32 50 -41 54 -105 99 -119 85 -7 -7 6 -28 40 -65 28 -31 51 -59 51 -64 0 -4 14 -23 32 -41 57 -59 24 -43 -44 22 -37 35 -60 61 -52 58 9 -3 -38 59 -105 138 -66 79 -121 151 -121 159 0 17 0 18 95 -100z m-1017 -47 c-10 -2 -26 -2 -35 0 -10 3 -2 5 17 5 19 0 27 -2 18 -5z m-61 -9 c-3 -3 -12 -4 -19 -1 -8 3 -5 6 6 6 11 1 17 -2 13 -5z m193 -21 c104 -41 196 -108 258 -189 39 -50 63 -71 86 -78 41 -11 84 8 105 45 14 25 13 31 -10 75 -26 52 -94 106 -153 123 -22 7 -25 9 -10 10 34 2 142 -58 169 -93 48 -63 39 -126 -22 -157 l-32 -16 50 -23 c64 -30 129 -100 129 -138 0 -15 -7 -37 -15 -48 -8 -12 -12 -24 -10 -28 3 -3 2 -4 -1 -2 -3 2 -24 -4 -47 -15 -23 -10 -51 -18 -62 -18 -11 0 -2 6 21 13 66 21 69 26 32 48 -62 38 -113 89 -253 250 -149 172 -229 239 -307 256 -24 6 -33 10 -20 11 12 1 54 -11 92 -26z m-266 -17 c-51 -51 -47 -122 9 -183 11 -13 16 -23 11 -23 -5 0 -22 19 -37 42 -39 60 -37 116 4 163 17 19 35 35 39 35 4 0 -7 -15 -26 -34z m509 7 c-7 -2 -19 -2 -25 0 -7 3 -2 5 12 5 14 0 19 -2 13 -5z m-46 -10 c-4 -3 -10 -3 -14 0 -3 4 0 7 7 7 7 0 10 -3 7 -7z m286 0 c-27 -10 -11 -46 45 -103 66 -68 66 -76 0 -26 -52 40 -81 91 -67 118 5 10 15 18 22 17 9 0 9 -2 0 -6z m183 -15 c40 -30 134 -125 134 -135 0 -4 -9 3 -20 17 l-20 25 0 -25 c-1 -24 -1 -24 -14 5 -18 41 -64 94 -101 116 -16 11 -25 19 -19 19 5 0 24 -10 40 -22z m249 -40 l40 -43 -45 43 c-51 47 -85 56 -75 20 4 -13 9 -31 12 -41 2 -9 27 -29 54 -42 34 -18 49 -31 49 -45 0 -29 -28 -25 -74 10 -71 54 -53 20 32 -61 46 -43 80 -79 76 -79 -5 0 -23 14 -41 32 -52 51 -38 19 23 -52 l56 -65 -74 75 c-72 73 -232 289 -222 299 6 6 89 -89 89 -103 0 -5 8 -10 17 -12 9 -1 32 -14 51 -28 19 -14 40 -26 47 -26 20 0 -19 39 -61 61 -40 20 -49 35 -49 79 0 54 32 46 95 -22z m246 49 c-15 -19 36 -97 86 -131 39 -27 39 -35 0 -15 -68 35 -128 129 -96 150 20 12 23 11 10 -4z m74 3 c-8 -13 9 -44 52 -90 28 -32 33 -43 24 -57 -9 -15 -10 -16 -11 -2 0 9 -28 47 -62 85 -34 38 -53 61 -41 51 20 -17 21 -17 26 3 3 11 8 20 12 20 3 0 3 -4 0 -10z m395 -57 l45 -48 -50 48 c-57 53 -75 58 -75 23 0 -41 11 -56 60 -81 60 -30 77 -65 31 -65 -13 0 -13 2 -3 9 17 11 -5 34 -58 61 -40 21 -50 36 -50 80 0 55 32 46 100 -27z m-1460 53 c0 -2 -8 -10 -17 -17 -16 -13 -17 -12 -4 4 13 16 21 21 21 13z m430 -83 c36 -37 52 -56 36 -43 l-28 25 6 -25 c6 -22 5 -21 -10 5 -9 17 -37 52 -63 79 -25 26 -37 44 -26 38 11 -6 49 -41 85 -79z m735 77 c-9 -14 12 -50 58 -97 43 -45 61 -54 50 -27 -4 12 -2 15 8 12 8 -3 15 -12 17 -21 5 -25 -41 -14 -85 21 -21 17 -56 50 -78 74 -31 33 -32 36 -7 13 22 -19 31 -24 27 -12 -7 17 -1 47 10 47 4 0 3 -4 0 -10z m125 1 c0 -5 20 -31 43 -57 24 -27 42 -54 40 -60 -2 -6 36 -49 84 -94 48 -46 67 -66 41 -46 -27 21 -48 34 -48 29 0 -4 25 -37 56 -73 l56 -65 -73 75 c-41 41 -105 119 -142 172 -73 105 -85 128 -68 128 6 0 11 -4 11 -9z m-821 -51 c18 -27 46 -59 62 -71 17 -12 28 -24 25 -27 -9 -8 -95 68 -111 98 -14 27 -19 50 -12 50 2 0 18 -22 36 -50z m841 -37 c0 -8 -9 0 -50 45 l-45 47 48 -45 c26 -24 47 -45 47 -47z m-495 -33 c10 -11 16 -20 13 -20 -3 0 -13 9 -23 20 -10 11 -16 20 -13 20 3 0 13 -9 23 -20z m635 -37 c0 -8 -38 17 -51 33 -9 11 -2 9 19 -6 17 -13 32 -25 32 -27z m81 30 c13 -16 12 -17 -3 -4 -10 7 -18 15 -18 17 0 8 8 3 21 -13z m-1719 -32 c-53 -5 -68 -11 -88 -34 -29 -34 -30 -58 -3 -114 33 -69 139 -141 269 -185 38 -13 44 -17 20 -13 -51 8 -188 77 -237 119 -125 109 -100 238 47 234 l55 -1 -63 -6z m138 -26 c27 -13 52 -30 56 -37 4 -6 -8 -2 -28 10 -19 12 -50 28 -69 36 -19 9 -28 15 -21 16 7 0 35 -11 62 -25z m905 -135 c10 -11 16 -20 13 -20 -3 0 -13 9 -23 20 -10 11 -16 20 -13 20 3 0 13 -9 23 -20z m716 -7 c13 -16 12 -17 -3 -4 -10 7 -18 15 -18 17 0 8 8 3 21 -13z m-691 -27 c0 -3 -5 -8 -12 -12 -7 -4 -8 -3 -4 4 7 12 16 16 16 8z m710 0 c0 -3 -5 -8 -12 -12 -7 -4 -8 -3 -4 4 7 12 16 16 16 8z m-2295 -17 c4 -6 5 -13 2 -15 -8 -8 -464 -10 -472 -2 -4 4 -4 11 0 17 9 15 461 15 470 0z m1112 -126 c-4 -3 -10 -3 -14 0 -3 4 0 7 7 7 7 0 10 -3 7 -7z m46 -10 c-7 -2 -19 -2 -25 0 -7 3 -2 5 12 5 14 0 19 -2 13 -5z m64 1 c-3 -3 -12 -4 -19 -1 -8 3 -5 6 6 6 11 1 17 -2 13 -5z m-434 -11 c-7 -2 -19 -2 -25 0 -7 3 -2 5 12 5 14 0 19 -2 13 -5z m125 -10 c-21 -2 -55 -2 -75 0 -21 2 -4 4 37 4 41 0 58 -2 38 -4z"/>
<path d="M463 1376 c-17 -8 -36 -23 -42 -35 -7 -12 -11 -112 -11 -275 l0 -256 37 20 c35 18 57 20 271 20 l232 0 -2 268 -3 267 -225 2 c-174 2 -232 -1 -257 -11z"/>
<path d="M315 1235 l-25 -24 0 -260 0 -260 43 19 42 19 3 266 c2 262 2 265 -18 265 -12 0 -32 -11 -45 -25z"/>
</g>
<g id="layer115" fill="#ddba4b" stroke="none">
<path d="M0 895 l0 -895 1700 0 1700 0 0 895 0 895 -1700 0 -1700 0 0 -895z m978 223 l2 -298 -240 0 c-258 0 -280 -4 -314 -52 -18 -26 -21 -80 -6 -108 22 -41 47 -45 294 -50 184 -4 240 -8 244 -18 3 -10 -45 -12 -251 -10 l-256 3 -31 30 c-17 16 -33 40 -36 52 -8 30 -25 29 -64 -3 -28 -24 -31 -31 -28 -77 6 -93 48 -106 341 -107 162 0 208 -3 204 -12 -3 -10 -61 -13 -248 -13 -271 0 -276 1 -319 70 -19 31 -20 49 -20 351 0 299 1 321 20 351 20 34 58 63 86 67 10 2 21 15 25 30 9 34 26 54 64 78 27 17 52 18 280 16 l250 -3 3 -297z m1397 82 c61 -75 83 -95 104 -96 59 -1 161 -89 161 -139 0 -30 -30 -34 -51 -7 -11 14 -11 15 1 5 16 -15 40 -17 40 -5 0 5 -15 27 -32 50 -41 54 -105 99 -119 85 -7 -7 6 -28 40 -65 28 -31 51 -59 51 -64 0 -4 14 -23 32 -41 57 -59 24 -43 -44 22 -37 35 -60 61 -52 58 9 -3 -38 59 -105 138 -66 79 -121 151 -121 159 0 17 0 18 95 -100z m-1017 -47 c-10 -2 -26 -2 -35 0 -10 3 -2 5 17 5 19 0 27 -2 18 -5z m-61 -9 c-3 -3 -12 -4 -19 -1 -8 3 -5 6 6 6 11 1 17 -2 13 -5z m193 -21 c104 -41 196 -108 258 -189 39 -50 63 -71 86 -78 41 -11 84 8 105 45 14 25 13 31 -10 75 -26 52 -94 106 -153 123 -22 7 -25 9 -10 10 34 2 142 -58 169 -93 48 -63 39 -126 -22 -157 l-32 -16 50 -23 c64 -30 129 -100 129 -138 0 -15 -7 -37 -15 -48 -8 -12 -12 -24 -10 -28 3 -3 2 -4 -1 -2 -3 2 -24 -4 -47 -15 -23 -10 -51 -18 -62 -18 -11 0 -2 6 21 13 66 21 69 26 32 48 -62 38 -113 89 -253 250 -149 172 -229 239 -307 256 -24 6 -33 10 -20 11 12 1 54 -11 92 -26z m-266 -17 c-51 -51 -47 -122 9 -183 11 -13 16 -23 11 -23 -5 0 -22 19 -37 42 -39 60 -37 116 4 163 17 19 35 35 39 35 4 0 -7 -15 -26 -34z m509 7 c-7 -2 -19 -2 -25 0 -7 3 -2 5 12 5 14 0 19 -2 13 -5z m-46 -10 c-4 -3 -10 -3 -14 0 -3 4 0 7 7 7 7 0 10 -3 7 -7z m286 0 c-27 -10 -11 -46 45 -103 66 -68 66 -76 0 -26 -52 40 -81 91 -67 118 5 10 15 18 22 17 9 0 9 -2 0 -6z m183 -15 c40 -30 134 -125 134 -135 0 -4 -9 3 -20 17 l-20 25 0 -25 c-1 -24 -1 -24 -14 5 -18 41 -64 94 -101 116 -16 11 -25 19 -19 19 5 0 24 -10 40 -22z m249 -40 l40 -43 -45 43 c-51 47 -85 56 -75 20 4 -13 9 -31 12 -41 2 -9 27 -29 54 -42 34 -18 49 -31 49 -45 0 -29 -28 -25 -74 10 -71 54 -53 20 32 -61 46 -43 80 -79 76 -79 -5 0 -23 14 -41 32 -52 51 -38 19 23 -52 l56 -65 -74 75 c-72 73 -232 289 -222 299 6 6 89 -89 89 -103 0 -5 8 -10 17 -12 9 -1 32 -14 51 -28 19 -14 40 -26 47 -26 20 0 -19 39 -61 61 -40 20 -49 35 -49 79 0 54 32 46 95 -22z m246 49 c-15 -19 36 -97 86 -131 39 -27 39 -35 0 -15 -68 35 -128 129 -96 150 20 12 23 11 10 -4z m74 3 c-8 -13 9 -44 52 -90 28 -32 33 -43 24 -57 -9 -15 -10 -16 -11 -2 0 9 -28 47 -62 85 -34 38 -53 61 -41 51 20 -17 21 -17 26 3 3 11 8 20 12 20 3 0 3 -4 0 -10z m395 -57 l45 -48 -50 48 c-57 53 -75 58 -75 23 0 -41 11 -56 60 -81 60 -30 77 -65 31 -65 -13 0 -13 2 -3 9 17 11 -5 34 -58 61 -40 21 -50 36 -50 80 0 55 32 46 100 -27z m-1460 53 c0 -2 -8 -10 -17 -17 -16 -13 -17 -12 -4 4 13 16 21 21 21 13z m430 -83 c36 -37 52 -56 36 -43 l-28 25 6 -25 c6 -22 5 -21 -10 5 -9 17 -37 52 -63 79 -25 26 -37 44 -26 38 11 -6 49 -41 85 -79z m735 77 c-9 -14 12 -50 58 -97 43 -45 61 -54 50 -27 -4 12 -2 15 8 12 8 -3 15 -12 17 -21 5 -25 -41 -14 -85 21 -21 17 -56 50 -78 74 -31 33 -32 36 -7 13 22 -19 31 -24 27 -12 -7 17 -1 47 10 47 4 0 3 -4 0 -10z m125 1 c0 -5 20 -31 43 -57 24 -27 42 -54 40 -60 -2 -6 36 -49 84 -94 48 -46 67 -66 41 -46 -27 21 -48 34 -48 29 0 -4 25 -37 56 -73 l56 -65 -73 75 c-41 41 -105 119 -142 172 -73 105 -85 128 -68 128 6 0 11 -4 11 -9z m-821 -51 c18 -27 46 -59 62 -71 17 -12 28 -24 25 -27 -9 -8 -95 68 -111 98 -14 27 -19 50 -12 50 2 0 18 -22 36 -50z m841 -37 c0 -8 -9 0 -50 45 l-45 47 48 -45 c26 -24 47 -45 47 -47z m-495 -33 c10 -11 16 -20 13 -20 -3 0 -13 9 -23 20 -10 11 -16 20 -13 20 3 0 13 -9 23 -20z m635 -37 c0 -8 -38 17 -51 33 -9 11 -2 9 19 -6 17 -13 32 -25 32 -27z m81 30 c13 -16 12 -17 -3 -4 -10 7 -18 15 -18 17 0 8 8 3 21 -13z m-1719 -32 c-53 -5 -68 -11 -88 -34 -29 -34 -30 -58 -3 -114 33 -69 139 -141 269 -185 38 -13 44 -17 20 -13 -51 8 -188 77 -237 119 -125 109 -100 238 47 234 l55 -1 -63 -6z m138 -26 c27 -13 52 -30 56 -37 4 -6 -8 -2 -28 10 -19 12 -50 28 -69 36 -19 9 -28 15 -21 16 7 0 35 -11 62 -25z m905 -135 c10 -11 16 -20 13 -20 -3 0 -13 9 -23 20 -10 11 -16 20 -13 20 3 0 13 -9 23 -20z m716 -7 c13 -16 12 -17 -3 -4 -10 7 -18 15 -18 17 0 8 8 3 21 -13z m-691 -27 c0 -3 -5 -8 -12 -12 -7 -4 -8 -3 -4 4 7 12 16 16 16 8z m710 0 c0 -3 -5 -8 -12 -12 -7 -4 -8 -3 -4 4 7 12 16 16 16 8z m-2295 -17 c4 -6 5 -13 2 -15 -8 -8 -464 -10 -472 -2 -4 4 -4 11 0 17 9 15 461 15 470 0z m1112 -126 c-4 -3 -10 -3 -14 0 -3 4 0 7 7 7 7 0 10 -3 7 -7z m46 -10 c-7 -2 -19 -2 -25 0 -7 3 -2 5 12 5 14 0 19 -2 13 -5z m64 1 c-3 -3 -12 -4 -19 -1 -8 3 -5 6 6 6 11 1 17 -2 13 -5z m-434 -11 c-7 -2 -19 -2 -25 0 -7 3 -2 5 12 5 14 0 19 -2 13 -5z m125 -10 c-21 -2 -55 -2 -75 0 -21 2 -4 4 37 4 41 0 58 -2 38 -4z"/>
<path d="M465 1375 c-55 -29 -55 -28 -55 -308 l0 -259 28 18 c24 17 54 20 267 24 l240 5 0 265 0 265 -225 3 c-187 2 -230 -1 -255 -13z"/>
<path d="M316 1235 l-26 -24 0 -260 0 -260 43 19 42 19 3 266 c2 253 1 265 -16 265 -11 0 -31 -11 -46 -25z"/>
</g>
<g id="layer116" fill="#aa92ad" stroke="none">
<path d="M0 895 l0 -895 1700 0 1700 0 0 895 0 895 -1700 0 -1700 0 0 -895z m980 225 l0 -300 -232 -1 c-128 0 -241 -2 -251 -4 -78 -15 -115 -116 -62 -170 14 -14 27 -26 28 -27 1 -1 112 -4 246 -7 178 -4 245 -9 248 -18 6 -18 -453 -23 -495 -6 -33 13 -82 67 -82 89 0 21 -17 17 -56 -13 -33 -24 -35 -29 -32 -76 6 -93 48 -106 341 -107 162 0 208 -3 204 -12 -5 -17 -452 -22 -498 -6 -17 6 -44 29 -60 51 l-29 40 0 321 c0 301 1 323 20 353 20 34 58 63 87 67 11 2 19 13 21 27 2 13 20 41 40 61 l37 37 263 1 262 0 0 -300z m1395 80 c61 -75 83 -95 104 -96 59 -1 161 -89 161 -139 0 -30 -30 -34 -51 -7 -11 14 -11 15 1 5 16 -15 40 -17 40 -5 0 5 -15 27 -32 50 -41 54 -105 99 -119 85 -7 -7 6 -28 40 -65 28 -31 51 -59 51 -64 0 -4 14 -23 32 -41 57 -59 24 -43 -44 22 -37 35 -60 61 -52 58 9 -3 -38 59 -105 138 -66 79 -121 151 -121 159 0 17 0 18 95 -100z m-1017 -47 c-10 -2 -26 -2 -35 0 -10 3 -2 5 17 5 19 0 27 -2 18 -5z m-61 -9 c-3 -3 -12 -4 -19 -1 -8 3 -5 6 6 6 11 1 17 -2 13 -5z m193 -21 c104 -41 196 -108 258 -189 39 -50 63 -71 86 -78 41 -11 84 8 105 45 14 25 13 31 -10 75 -26 52 -94 106 -153 123 -22 7 -25 9 -10 10 34 2 142 -58 169 -93 48 -63 39 -126 -22 -157 l-32 -16 50 -23 c64 -30 129 -100 129 -138 0 -15 -7 -37 -15 -48 -8 -12 -12 -24 -10 -28 3 -3 2 -4 -1 -2 -3 2 -24 -4 -47 -15 -23 -10 -51 -18 -62 -18 -11 0 -2 6 21 13 66 21 69 26 32 48 -62 38 -113 89 -253 250 -149 172 -229 239 -307 256 -24 6 -33 10 -20 11 12 1 54 -11 92 -26z m-266 -17 c-51 -51 -47 -122 9 -183 11 -13 16 -23 11 -23 -5 0 -22 19 -37 42 -39 60 -37 116 4 163 17 19 35 35 39 35 4 0 -7 -15 -26 -34z m509 7 c-7 -2 -19 -2 -25 0 -7 3 -2 5 12 5 14 0 19 -2 13 -5z m-46 -10 c-4 -3 -10 -3 -14 0 -3 4 0 7 7 7 7 0 10 -3 7 -7z m286 0 c-27 -10 -11 -46 45 -103 66 -68 66 -76 0 -26 -52 40 -81 91 -67 118 5 10 15 18 22 17 9 0 9 -2 0 -6z m183 -15 c40 -30 134 -125 134 -135 0 -4 -9 3 -20 17 l-20 25 0 -25 c-1 -24 -1 -24 -14 5 -18 41 -64 94 -101 116 -16 11 -25 19 -19 19 5 0 24 -10 40 -22z m249 -40 l40 -43 -45 43 c-51 47 -85 56 -75 20 4 -13 9 -31 12 -41 2 -9 27 -29 54 -42 34 -18 49 -31 49 -45 0 -29 -28 -25 -74 10 -71 54 -53 20 32 -61 46 -43 80 -79 76 -79 -5 0 -23 14 -41 32 -52 51 -38 19 23 -52 l56 -65 -74 75 c-72 73 -232 289 -222 299 6 6 89 -89 89 -103 0 -5 8 -10 17 -12 9 -1 32 -14 51 -28 19 -14 40 -26 47 -26 20 0 -19 39 -61 61 -40 20 -49 35 -49 79 0 54 32 46 95 -22z m246 49 c-15 -19 36 -97 86 -131 39 -27 39 -35 0 -15 -68 35 -128 129 -96 150 20 12 23 11 10 -4z m74 3 c-8 -13 9 -44 52 -90 28 -32 33 -43 24 -57 -9 -15 -10 -16 -11 -2 0 9 -28 47 -62 85 -34 38 -53 61 -41 51 20 -17 21 -17 26 3 3 11 8 20 12 20 3 0 3 -4 0 -10z m395 -57 l45 -48 -50 48 c-57 53 -75 58 -75 23 0 -41 11 -56 60 -81 60 -30 77 -65 31 -65 -13 0 -13 2 -3 9 17 11 -5 34 -58 61 -40 21 -50 36 -50 80 0 55 32 46 100 -27z m-1460 53 c0 -2 -8 -10 -17 -17 -16 -13 -17 -12 -4 4 13 16 21 21 21 13z m430 -83 c36 -37 52 -56 36 -43 l-28 25 6 -25 c6 -22 5 -21 -10 5 -9 17 -37 52 -63 79 -25 26 -37 44 -26 38 11 -6 49 -41 85 -79z m735 77 c-9 -14 12 -50 58 -97 43 -45 61 -54 50 -27 -4 12 -2 15 8 12 8 -3 15 -12 17 -21 5 -25 -41 -14 -85 21 -21 17 -56 50 -78 74 -31 33 -32 36 -7 13 22 -19 31 -24 27 -12 -7 17 -1 47 10 47 4 0 3 -4 0 -10z m125 1 c0 -5 20 -31 43 -57 24 -27 42 -54 40 -60 -2 -6 36 -49 84 -94 48 -46 67 -66 41 -46 -27 21 -48 34 -48 29 0 -4 25 -37 56 -73 l56 -65 -73 75 c-41 41 -105 119 -142 172 -73 105 -85 128 -68 128 6 0 11 -4 11 -9z m-821 -51 c18 -27 46 -59 62 -71 17 -12 28 -24 25 -27 -9 -8 -95 68 -111 98 -14 27 -19 50 -12 50 2 0 18 -22 36 -50z m841 -37 c0 -8 -9 0 -50 45 l-45 47 48 -45 c26 -24 47 -45 47 -47z m-495 -33 c10 -11 16 -20 13 -20 -3 0 -13 9 -23 20 -10 11 -16 20 -13 20 3 0 13 -9 23 -20z m635 -37 c0 -8 -38 17 -51 33 -9 11 -2 9 19 -6 17 -13 32 -25 32 -27z m81 30 c13 -16 12 -17 -3 -4 -10 7 -18 15 -18 17 0 8 8 3 21 -13z m-1719 -32 c-53 -5 -68 -11 -88 -34 -29 -34 -30 -58 -3 -114 33 -69 139 -141 269 -185 38 -13 44 -17 20 -13 -51 8 -188 77 -237 119 -125 109 -100 238 47 234 l55 -1 -63 -6z m138 -26 c27 -13 52 -30 56 -37 4 -6 -8 -2 -28 10 -19 12 -50 28 -69 36 -19 9 -28 15 -21 16 7 0 35 -11 62 -25z m905 -135 c10 -11 16 -20 13 -20 -3 0 -13 9 -23 20 -10 11 -16 20 -13 20 3 0 13 -9 23 -20z m716 -7 c13 -16 12 -17 -3 -4 -10 7 -18 15 -18 17 0 8 8 3 21 -13z m-691 -27 c0 -3 -5 -8 -12 -12 -7 -4 -8 -3 -4 4 7 12 16 16 16 8z m710 0 c0 -3 -5 -8 -12 -12 -7 -4 -8 -3 -4 4 7 12 16 16 16 8z m-2292 -28 c3 -17 -13 -18 -237 -18 -194 0 -241 3 -241 13 0 8 3 17 7 21 4 3 110 5 237 4 211 -3 231 -5 234 -20z m1109 -115 c-4 -3 -10 -3 -14 0 -3 4 0 7 7 7 7 0 10 -3 7 -7z m46 -10 c-7 -2 -19 -2 -25 0 -7 3 -2 5 12 5 14 0 19 -2 13 -5z m64 1 c-3 -3 -12 -4 -19 -1 -8 3 -5 6 6 6 11 1 17 -2 13 -5z m-434 -11 c-7 -2 -19 -2 -25 0 -7 3 -2 5 12 5 14 0 19 -2 13 -5z m125 -10 c-21 -2 -55 -2 -75 0 -21 2 -4 4 37 4 41 0 58 -2 38 -4z"/>
<path d="M1829 822 c27 -50 106 -145 143 -172 40 -29 43 -30 56 -13 31 42 -17 125 -101 173 -60 35 -114 41 -98 12z"/>
<path d="M3015 990 c3 -5 8 -10 11 -10 3 0 2 5 -1 10 -3 6 -8 10 -11 10 -3 0 -2 -4 1 -10z"/>
<path d="M3080 896 c0 -2 8 -10 18 -17 15 -13 16 -12 3 4 -13 16 -21 21 -21 13z"/>
</g>
<g id="layer117" fill="#fdcc28" stroke="none">
<path d="M0 895 l0 -895 1700 0 1700 0 0 895 0 895 -1700 0 -1700 0 0 -895z m980 225 l0 -300 -232 -1 c-128 0 -241 -2 -251 -4 -78 -15 -115 -116 -62 -170 14 -14 27 -26 28 -27 1 -1 112 -4 246 -7 178 -4 245 -9 248 -18 6 -18 -453 -23 -495 -6 -33 13 -82 67 -82 89 0 21 -17 17 -56 -13 -33 -24 -35 -29 -32 -76 6 -93 48 -106 341 -107 162 0 208 -3 204 -12 -5 -17 -452 -22 -498 -6 -17 6 -44 29 -60 51 l-29 40 0 321 c0 301 1 323 20 353 20 34 58 63 87 67 11 2 19 13 21 27 2 13 20 41 40 61 l37 37 263 1 262 0 0 -300z m1417 53 c42 -52 63 -71 75 -67 45 13 168 -90 168 -141 0 -27 -26 -35 -48 -13 -25 25 -11 -7 15 -34 14 -15 24 -30 21 -34 -4 -3 -26 16 -50 42 -23 26 -63 60 -88 75 -25 16 -40 29 -35 29 6 0 21 -7 33 -16 12 -8 22 -12 22 -9 0 3 -52 67 -115 142 -63 75 -115 143 -115 152 1 17 15 1 117 -126z m-967 -28 c128 -34 245 -112 321 -214 42 -55 59 -71 86 -76 43 -8 84 12 101 48 31 64 -65 170 -177 197 -46 11 -55 10 -93 -9 l-42 -20 22 22 c50 50 193 16 273 -64 63 -63 60 -136 -8 -170 l-32 -16 40 -18 c114 -52 166 -132 124 -191 -13 -19 -12 -22 11 -33 14 -6 48 -11 77 -12 42 0 48 -2 29 -10 -15 -6 -38 -5 -65 2 -57 16 -92 14 -157 -6 -144 -44 -393 21 -513 134 -122 114 -94 231 55 231 53 0 166 -43 183 -70 4 -6 -19 3 -50 21 -43 24 -72 33 -125 37 -66 4 -70 3 -99 -26 -17 -17 -31 -40 -31 -52 0 -139 276 -292 500 -277 73 5 140 22 140 36 0 3 -28 27 -62 51 -38 28 -117 109 -205 212 -143 166 -204 222 -275 251 -92 38 -188 29 -240 -23 -44 -45 -38 -119 15 -177 11 -13 15 -23 9 -23 -20 0 -62 85 -62 126 0 106 107 157 250 119z m568 -49 c29 -16 162 -146 148 -146 -4 0 -17 10 -27 23 l-20 22 6 -22 c9 -34 -2 -28 -20 12 -17 35 -96 115 -115 115 -28 0 -4 -48 54 -105 57 -57 59 -62 27 -45 -70 36 -125 116 -100 146 14 17 14 17 47 0z m152 -3 c37 -24 119 -105 131 -128 7 -13 4 -12 -10 5 l-21 25 0 -27 c0 -15 -4 -29 -9 -32 -4 -3 -6 5 -4 17 6 28 -47 101 -96 134 -19 13 -30 23 -25 23 5 0 21 -7 34 -17z m260 -50 c25 -26 54 -59 65 -73 10 -14 -12 8 -51 48 -38 39 -75 72 -82 72 -13 0 -16 -48 -4 -65 4 -6 28 -23 53 -38 59 -33 74 -67 31 -67 -16 0 -104 61 -97 68 2 2 21 -10 42 -27 39 -32 53 -38 53 -21 0 5 -19 22 -42 37 -57 36 -68 51 -68 89 0 59 30 52 100 -23z m241 53 c-15 -17 33 -89 85 -128 41 -31 39 -36 -5 -14 -63 33 -120 123 -94 149 12 13 25 7 14 -7z m128 -21 c32 -29 38 -32 34 -15 -6 21 12 50 30 50 6 0 2 -6 -8 -14 -18 -13 -18 -14 3 -47 20 -33 56 -70 97 -100 19 -13 19 -13 6 4 -16 20 -7 37 10 20 7 -7 9 -19 6 -28 -6 -14 -9 -14 -38 0 -17 9 -64 48 -105 86 -70 64 -94 80 -94 61 0 -11 29 -53 63 -89 24 -25 27 -35 18 -50 -8 -14 -10 -14 -11 -3 0 8 -28 47 -62 85 -34 39 -53 62 -41 52 20 -17 21 -17 26 3 7 28 21 25 66 -15z m341 -32 c79 -83 88 -101 14 -25 -72 73 -94 86 -94 55 0 -39 13 -62 41 -73 61 -26 97 -80 52 -80 -19 0 -116 70 -108 78 3 3 18 -6 33 -20 30 -28 71 -52 78 -45 7 7 -56 57 -71 57 -34 0 -63 102 -32 113 18 7 37 -6 87 -60z m-880 48 c0 -4 19 -30 43 -57 23 -26 35 -44 28 -39 -33 20 35 -58 105 -121 41 -37 85 -81 96 -98 12 -18 -8 -3 -45 34 -82 79 -88 68 -11 -18 40 -44 61 -61 73 -57 12 5 13 3 4 -6 -9 -9 -18 -6 -41 13 -52 43 -138 145 -204 240 -84 122 -82 118 -63 118 8 0 15 -4 15 -9z m686 -42 c60 -57 69 -55 23 6 -19 25 -25 41 -18 44 6 2 16 -4 21 -13 5 -10 23 -32 39 -50 16 -18 26 -36 23 -39 -3 -3 49 -59 115 -125 67 -66 121 -125 121 -131 0 -49 -98 36 -202 174 -33 44 -63 80 -67 80 -4 0 -34 24 -65 53 -32 28 -55 52 -51 52 3 0 31 -23 61 -51z m-812 12 c9 -16 36 -50 61 -75 26 -25 42 -46 36 -46 -22 0 -121 106 -121 128 0 30 7 28 24 -7z m-1156 -353 c3 -17 -13 -18 -237 -18 -194 0 -241 3 -241 13 0 8 3 17 7 21 4 3 110 5 237 4 211 -3 231 -5 234 -20z"/>
<path d="M475 1380 c-11 -4 -30 -18 -42 -29 -23 -22 -23 -25 -23 -283 l0 -260 28 18 c24 17 54 20 262 24 l235 5 3 268 2 267 -222 -1 c-123 0 -232 -4 -243 -9z"/>
<path d="M332 1243 c-18 -8 -35 -25 -37 -37 -3 -11 -4 -132 -3 -267 l3 -245 43 18 42 19 0 264 c0 146 -3 265 -7 265 -5 0 -23 -8 -41 -17z"/>
</g>
<g id="layer118" fill="#d7bf71" stroke="none">
<path d="M0 895 l0 -895 1700 0 1700 0 0 895 0 895 -1700 0 -1700 0 0 -895z m980 225 l0 -300 -227 0 c-126 0 -244 -5 -264 -10 -47 -13 -69 -39 -76 -88 -4 -33 -1 -44 25 -73 l30 -34 244 -5 c207 -4 243 -7 243 -20 0 -13 -32 -15 -220 -18 -251 -3 -293 3 -331 53 -13 18 -24 39 -24 48 0 25 -22 20 -58 -12 -25 -23 -32 -38 -32 -66 0 -20 5 -45 10 -55 22 -41 47 -45 295 -50 204 -4 240 -7 240 -20 0 -13 -34 -15 -235 -18 -264 -2 -284 2 -328 68 l-23 34 3 331 3 332 27 35 c19 24 38 38 63 42 28 6 35 11 35 31 0 13 15 39 34 59 l33 36 267 0 266 0 0 -300z m1417 53 c42 -52 63 -71 75 -67 45 13 168 -90 168 -141 0 -27 -26 -35 -48 -13 -25 25 -11 -7 15 -34 14 -15 24 -30 21 -34 -4 -3 -26 16 -50 42 -23 26 -63 60 -88 75 -25 16 -40 29 -35 29 6 0 21 -7 33 -16 12 -8 22 -12 22 -9 0 3 -52 67 -115 142 -63 75 -115 143 -115 152 1 17 15 1 117 -126z m-967 -28 c128 -34 245 -112 321 -214 42 -55 59 -71 86 -76 43 -8 84 12 101 48 31 64 -65 170 -177 197 -46 11 -55 10 -93 -9 l-42 -20 22 22 c50 50 193 16 273 -64 63 -63 60 -136 -8 -170 l-32 -16 40 -18 c114 -52 166 -132 124 -191 -13 -19 -12 -22 11 -33 14 -6 48 -11 77 -12 42 0 48 -2 29 -10 -15 -6 -38 -5 -65 2 -57 16 -92 14 -157 -6 -144 -44 -393 21 -513 134 -122 114 -94 231 55 231 53 0 166 -43 183 -70 4 -6 -19 3 -50 21 -43 24 -72 33 -125 37 -66 4 -70 3 -99 -26 -17 -17 -31 -40 -31 -52 0 -139 276 -292 500 -277 73 5 140 22 140 36 0 3 -28 27 -62 51 -38 28 -117 109 -205 212 -143 166 -204 222 -275 251 -92 38 -188 29 -240 -23 -44 -45 -38 -119 15 -177 11 -13 15 -23 9 -23 -20 0 -62 85 -62 126 0 106 107 157 250 119z m568 -49 c29 -16 162 -146 148 -146 -4 0 -17 10 -27 23 l-20 22 6 -22 c9 -34 -2 -28 -20 12 -17 35 -96 115 -115 115 -28 0 -4 -48 54 -105 57 -57 59 -62 27 -45 -70 36 -125 116 -100 146 14 17 14 17 47 0z m152 -3 c37 -24 119 -105 131 -128 7 -13 4 -12 -10 5 l-21 25 0 -27 c0 -15 -4 -29 -9 -32 -4 -3 -6 5 -4 17 6 28 -47 101 -96 134 -19 13 -30 23 -25 23 5 0 21 -7 34 -17z m260 -50 c25 -26 54 -59 65 -73 10 -14 -12 8 -51 48 -38 39 -75 72 -82 72 -13 0 -16 -48 -4 -65 4 -6 28 -23 53 -38 59 -33 74 -67 31 -67 -16 0 -104 61 -97 68 2 2 21 -10 42 -27 39 -32 53 -38 53 -21 0 5 -19 22 -42 37 -57 36 -68 51 -68 89 0 59 30 52 100 -23z m241 53 c-15 -17 33 -89 85 -128 41 -31 39 -36 -5 -14 -63 33 -120 123 -94 149 12 13 25 7 14 -7z m128 -21 c32 -29 38 -32 34 -15 -6 21 12 50 30 50 6 0 2 -6 -8 -14 -18 -13 -18 -14 3 -47 20 -33 56 -70 97 -100 19 -13 19 -13 6 4 -16 20 -7 37 10 20 7 -7 9 -19 6 -28 -6 -14 -9 -14 -38 0 -17 9 -64 48 -105 86 -70 64 -94 80 -94 61 0 -11 29 -53 63 -89 24 -25 27 -35 18 -50 -8 -14 -10 -14 -11 -3 0 8 -28 47 -62 85 -34 39 -53 62 -41 52 20 -17 21 -17 26 3 7 28 21 25 66 -15z m341 -32 c79 -83 88 -101 14 -25 -72 73 -94 86 -94 55 0 -39 13 -62 41 -73 61 -26 97 -80 52 -80 -19 0 -116 70 -108 78 3 3 18 -6 33 -20 30 -28 71 -52 78 -45 7 7 -56 57 -71 57 -34 0 -63 102 -32 113 18 7 37 -6 87 -60z m-880 48 c0 -4 19 -30 43 -57 23 -26 35 -44 28 -39 -33 20 35 -58 105 -121 41 -37 85 -81 96 -98 12 -18 -8 -3 -45 34 -82 79 -88 68 -11 -18 40 -44 61 -61 73 -57 12 5 13 3 4 -6 -9 -9 -18 -6 -41 13 -52 43 -138 145 -204 240 -84 122 -82 118 -63 118 8 0 15 -4 15 -9z m686 -42 c60 -57 69 -55 23 6 -19 25 -25 41 -18 44 6 2 16 -4 21 -13 5 -10 23 -32 39 -50 16 -18 26 -36 23 -39 -3 -3 49 -59 115 -125 67 -66 121 -125 121 -131 0 -49 -98 36 -202 174 -33 44 -63 80 -67 80 -4 0 -34 24 -65 53 -32 28 -55 52 -51 52 3 0 31 -23 61 -51z m-812 12 c9 -16 36 -50 61 -75 26 -25 42 -46 36 -46 -22 0 -121 106 -121 128 0 30 7 28 24 -7z m-1154 -351 c0 -19 -7 -20 -240 -20 -233 0 -240 1 -240 20 0 19 7 20 240 20 233 0 240 -1 240 -20z"/>
<path d="M436 1347 l-26 -34 0 -246 c0 -136 3 -247 6 -247 3 0 15 6 27 13 15 8 96 14 257 17 l235 5 3 263 2 262 -239 0 -240 0 -25 -33z"/>
<path d="M344 1250 c-51 -20 -54 -36 -54 -302 0 -225 5 -271 24 -239 3 4 19 11 36 14 l30 6 0 266 c0 146 -3 265 -7 264 -5 0 -18 -4 -29 -9z"/>
</g>
<g id="layer119" fill="#eac961" stroke="none">
<path d="M0 895 l0 -895 1700 0 1700 0 0 895 0 895 -1700 0 -1700 0 0 -895z m980 226 l0 -300 -249 -3 c-236 -3 -251 -4 -278 -24 -25 -19 -28 -27 -28 -79 0 -52 3 -60 28 -79 27 -20 44 -21 265 -26 202 -4 237 -7 237 -20 0 -13 -34 -15 -238 -18 -271 -3 -276 -2 -328 74 l-31 46 -35 -34 c-32 -30 -34 -36 -29 -77 4 -27 14 -51 28 -62 11 -11 21 -20 22 -21 1 -1 111 -4 246 -7 209 -5 245 -8 245 -21 0 -13 -34 -15 -240 -18 -225 -2 -242 -1 -273 18 -18 11 -41 34 -52 52 -19 32 -20 47 -18 364 l3 331 28 37 c17 22 40 39 57 43 19 3 30 13 34 28 3 13 21 40 40 59 l33 36 267 0 266 0 0 -299z m1417 52 c42 -52 63 -71 75 -67 45 13 168 -90 168 -141 0 -27 -26 -35 -48 -13 -25 25 -11 -7 15 -34 14 -15 24 -30 21 -34 -4 -3 -26 16 -50 42 -23 26 -63 60 -88 75 -25 16 -40 29 -35 29 6 0 21 -7 33 -16 12 -8 22 -12 22 -9 0 3 -52 67 -115 142 -63 75 -115 143 -115 152 1 17 15 1 117 -126z m-967 -28 c128 -34 245 -112 321 -214 42 -55 59 -71 86 -76 43 -8 84 12 101 48 31 64 -65 170 -177 197 -46 11 -55 10 -93 -9 l-42 -20 22 22 c50 50 193 16 273 -64 63 -63 60 -136 -8 -170 l-32 -16 40 -18 c114 -52 166 -132 124 -191 -13 -19 -12 -22 11 -33 14 -6 48 -11 77 -12 42 0 48 -2 29 -10 -15 -6 -38 -5 -65 2 -57 16 -92 14 -157 -6 -144 -44 -393 21 -513 134 -122 114 -94 231 55 231 53 0 166 -43 183 -70 4 -6 -19 3 -50 21 -43 24 -72 33 -125 37 -66 4 -70 3 -99 -26 -17 -17 -31 -40 -31 -52 0 -139 276 -292 500 -277 73 5 140 22 140 36 0 3 -28 27 -62 51 -38 28 -117 109 -205 212 -143 166 -204 222 -275 251 -92 38 -188 29 -240 -23 -44 -45 -38 -119 15 -177 11 -13 15 -23 9 -23 -20 0 -62 85 -62 126 0 106 107 157 250 119z m568 -49 c29 -16 162 -146 148 -146 -4 0 -17 10 -27 23 l-20 22 6 -22 c9 -34 -2 -28 -20 12 -17 35 -96 115 -115 115 -28 0 -4 -48 54 -105 57 -57 59 -62 27 -45 -70 36 -125 116 -100 146 14 17 14 17 47 0z m152 -3 c37 -24 119 -105 131 -128 7 -13 4 -12 -10 5 l-21 25 0 -27 c0 -15 -4 -29 -9 -32 -4 -3 -6 5 -4 17 6 28 -47 101 -96 134 -19 13 -30 23 -25 23 5 0 21 -7 34 -17z m260 -50 c25 -26 54 -59 65 -73 10 -14 -12 8 -51 48 -38 39 -75 72 -82 72 -13 0 -16 -48 -4 -65 4 -6 28 -23 53 -38 59 -33 74 -67 31 -67 -16 0 -104 61 -97 68 2 2 21 -10 42 -27 39 -32 53 -38 53 -21 0 5 -19 22 -42 37 -57 36 -68 51 -68 89 0 59 30 52 100 -23z m241 53 c-15 -17 33 -89 85 -128 41 -31 39 -36 -5 -14 -63 33 -120 123 -94 149 12 13 25 7 14 -7z m128 -21 c32 -29 38 -32 34 -15 -6 21 12 50 30 50 6 0 2 -6 -8 -14 -18 -13 -18 -14 3 -47 20 -33 56 -70 97 -100 19 -13 19 -13 6 4 -16 20 -7 37 10 20 7 -7 9 -19 6 -28 -6 -14 -9 -14 -38 0 -17 9 -64 48 -105 86 -70 64 -94 80 -94 61 0 -11 29 -53 63 -89 24 -25 27 -35 18 -50 -8 -14 -10 -14 -11 -3 0 8 -28 47 -62 85 -34 39 -53 62 -41 52 20 -17 21 -17 26 3 7 28 21 25 66 -15z m341 -32 c79 -83 88 -101 14 -25 -72 73 -94 86 -94 55 0 -39 13 -62 41 -73 61 -26 97 -80 52 -80 -19 0 -116 70 -108 78 3 3 18 -6 33 -20 30 -28 71 -52 78 -45 7 7 -56 57 -71 57 -34 0 -63 102 -32 113 18 7 37 -6 87 -60z m-880 48 c0 -4 19 -30 43 -57 23 -26 35 -44 28 -39 -33 20 35 -58 105 -121 41 -37 85 -81 96 -98 12 -18 -8 -3 -45 34 -82 79 -88 68 -11 -18 40 -44 61 -61 73 -57 12 5 13 3 4 -6 -9 -9 -18 -6 -41 13 -52 43 -138 145 -204 240 -84 122 -82 118 -63 118 8 0 15 -4 15 -9z m686 -42 c60 -57 69 -55 23 6 -19 25 -25 41 -18 44 6 2 16 -4 21 -13 5 -10 23 -32 39 -50 16 -18 26 -36 23 -39 -3 -3 49 -59 115 -125 67 -66 121 -125 121 -131 0 -49 -98 36 -202 174 -33 44 -63 80 -67 80 -4 0 -34 24 -65 53 -32 28 -55 52 -51 52 3 0 31 -23 61 -51z m-812 12 c9 -16 36 -50 61 -75 26 -25 42 -46 36 -46 -22 0 -121 106 -121 128 0 30 7 28 24 -7z m-1154 -351 c0 -19 -7 -20 -240 -20 -233 0 -240 1 -240 20 0 19 7 20 240 20 233 0 240 -1 240 -20z"/>
<path d="M464 1370 c-46 -18 -49 -38 -46 -304 2 -228 4 -247 19 -235 12 11 75 15 257 19 l241 5 3 263 2 262 -227 -1 c-126 0 -237 -4 -249 -9z"/>
<path d="M345 1250 c-48 -19 -50 -28 -53 -297 -2 -139 -1 -253 3 -253 3 0 13 4 23 9 9 5 25 12 35 15 16 5 17 27 17 271 0 146 -1 265 -2 264 -2 0 -12 -4 -23 -9z"/>
</g>
<g id="layer120" fill="#b8aaba" stroke="none">
<path d="M0 895 l0 -895 1700 0 1700 0 0 895 0 895 -1700 0 -1700 0 0 -895z m980 220 l0 -305 -249 0 -249 0 -32 -26 c-28 -24 -31 -31 -28 -77 2 -41 8 -54 31 -71 27 -20 44 -21 270 -26 133 -3 241 -8 240 -12 -2 -5 -3 -12 -3 -18 0 -15 -475 -13 -503 1 -33 17 -68 51 -78 77 -11 29 -30 28 -60 -4 -34 -36 -33 -95 4 -131 l27 -28 243 -5 c220 -5 242 -7 245 -22 3 -17 -13 -18 -238 -18 -264 0 -275 2 -324 61 l-27 31 3 345 3 345 37 34 c21 19 46 34 56 34 11 0 22 12 30 35 7 18 27 45 43 60 l31 25 264 0 264 0 0 -305z m1417 58 c42 -52 63 -71 75 -67 45 13 168 -90 168 -141 0 -27 -26 -35 -48 -13 -25 25 -11 -7 15 -34 14 -15 24 -30 21 -34 -4 -3 -26 16 -50 42 -23 26 -63 60 -88 75 -25 16 -40 29 -35 29 6 0 21 -7 33 -16 12 -8 22 -12 22 -9 0 3 -52 67 -115 142 -63 75 -115 143 -115 152 1 17 15 1 117 -126z m-967 -28 c128 -34 245 -112 321 -214 42 -55 59 -71 86 -76 43 -8 84 12 101 48 31 64 -65 170 -177 197 -46 11 -55 10 -93 -9 l-42 -20 22 22 c50 50 193 16 273 -64 63 -63 60 -136 -8 -170 l-32 -16 40 -18 c114 -52 166 -132 124 -191 -13 -19 -12 -22 11 -33 14 -6 48 -11 77 -12 42 0 48 -2 29 -10 -15 -6 -38 -5 -65 2 -57 16 -92 14 -157 -6 -144 -44 -393 21 -513 134 -122 114 -94 231 55 231 53 0 166 -43 183 -70 4 -6 -19 3 -50 21 -43 24 -72 33 -125 37 -66 4 -70 3 -99 -26 -17 -17 -31 -40 -31 -52 0 -139 276 -292 500 -277 73 5 140 22 140 36 0 3 -28 27 -62 51 -38 28 -117 109 -205 212 -143 166 -204 222 -275 251 -92 38 -188 29 -240 -23 -44 -45 -38 -119 15 -177 11 -13 15 -23 9 -23 -20 0 -62 85 -62 126 0 106 107 157 250 119z m568 -49 c29 -16 162 -146 148 -146 -4 0 -17 10 -27 23 l-20 22 6 -22 c9 -34 -2 -28 -20 12 -17 35 -96 115 -115 115 -28 0 -4 -48 54 -105 57 -57 59 -62 27 -45 -70 36 -125 116 -100 146 14 17 14 17 47 0z m152 -3 c37 -24 119 -105 131 -128 7 -13 4 -12 -10 5 l-21 25 0 -27 c0 -15 -4 -29 -9 -32 -4 -3 -6 5 -4 17 6 28 -47 101 -96 134 -19 13 -30 23 -25 23 5 0 21 -7 34 -17z m260 -50 c25 -26 54 -59 65 -73 10 -14 -12 8 -51 48 -38 39 -75 72 -82 72 -13 0 -16 -48 -4 -65 4 -6 28 -23 53 -38 59 -33 74 -67 31 -67 -16 0 -104 61 -97 68 2 2 21 -10 42 -27 39 -32 53 -38 53 -21 0 5 -19 22 -42 37 -57 36 -68 51 -68 89 0 59 30 52 100 -23z m241 53 c-15 -17 33 -89 85 -128 41 -31 39 -36 -5 -14 -63 33 -120 123 -94 149 12 13 25 7 14 -7z m128 -21 c32 -29 38 -32 34 -15 -6 21 12 50 30 50 6 0 2 -6 -8 -14 -18 -13 -18 -14 3 -47 20 -33 56 -70 97 -100 19 -13 19 -13 6 4 -16 20 -7 37 10 20 7 -7 9 -19 6 -28 -6 -14 -9 -14 -38 0 -17 9 -64 48 -105 86 -70 64 -94 80 -94 61 0 -11 29 -53 63 -89 24 -25 27 -35 18 -50 -8 -14 -10 -14 -11 -3 0 8 -28 47 -62 85 -34 39 -53 62 -41 52 20 -17 21 -17 26 3 7 28 21 25 66 -15z m341 -32 c79 -83 88 -101 14 -25 -72 73 -94 86 -94 55 0 -39 13 -62 41 -73 61 -26 97 -80 52 -80 -19 0 -116 70 -108 78 3 3 18 -6 33 -20 30 -28 71 -52 78 -45 7 7 -56 57 -71 57 -34 0 -63 102 -32 113 18 7 37 -6 87 -60z m-880 48 c0 -4 19 -30 43 -57 23 -26 35 -44 28 -39 -33 20 35 -58 105 -121 41 -37 85 -81 96 -98 12 -18 -8 -3 -45 34 -82 79 -88 68 -11 -18 40 -44 61 -61 73 -57 12 5 13 3 4 -6 -9 -9 -18 -6 -41 13 -52 43 -138 145 -204 240 -84 122 -82 118 -63 118 8 0 15 -4 15 -9z m686 -42 c60 -57 69 -55 23 6 -19 25 -25 41 -18 44 6 2 16 -4 21 -13 5 -10 23 -32 39 -50 16 -18 26 -36 23 -39 -3 -3 49 -59 115 -125 67 -66 121 -125 121 -131 0 -49 -98 36 -202 174 -33 44 -63 80 -67 80 -4 0 -34 24 -65 53 -32 28 -55 52 -51 52 3 0 31 -23 61 -51z m-812 12 c9 -16 36 -50 61 -75 26 -25 42 -46 36 -46 -22 0 -121 106 -121 128 0 30 7 28 24 -7z m-1154 -351 c0 -19 -7 -20 -240 -20 -233 0 -240 1 -240 20 0 19 7 20 240 20 233 0 240 -1 240 -20z"/>
<path d="M2475 1090 c-8 -12 120 -140 140 -140 29 0 15 24 -49 87 -65 63 -80 72 -91 53z"/>
<path d="M1829 822 c27 -50 106 -145 143 -172 40 -29 43 -30 55 -14 17 23 16 39 -3 80 -27 57 -126 122 -187 124 -14 0 -16 -4 -8 -18z"/>
<path d="M2370 896 c0 -2 8 -10 18 -17 15 -13 16 -12 3 4 -13 16 -21 21 -21 13z"/>
<path d="M3137 830 c68 -85 90 -106 100 -96 4 4 -31 44 -76 89 l-84 82 60 -75z"/>
</g>
<g id="layer121" fill="#bfb0c2" stroke="none">
<path d="M0 895 l0 -895 1700 0 1700 0 0 895 0 895 -1700 0 -1700 0 0 -895z m980 220 l0 -305 -249 0 -249 0 -32 -26 c-28 -24 -31 -31 -28 -77 2 -41 8 -54 31 -71 27 -20 44 -21 270 -26 133 -3 241 -8 240 -12 -2 -5 -3 -12 -3 -18 0 -15 -475 -13 -503 1 -33 17 -68 51 -78 77 -11 29 -30 28 -60 -4 -34 -36 -33 -95 4 -131 l27 -28 243 -5 c220 -5 242 -7 245 -22 3 -17 -13 -18 -238 -18 -264 0 -275 2 -324 61 l-27 31 3 345 3 345 37 34 c21 19 46 34 56 34 11 0 22 12 30 35 7 18 27 45 43 60 l31 25 264 0 264 0 0 -305z m1395 88 c70 -87 83 -99 111 -99 57 0 154 -89 154 -141 0 -25 -28 -31 -48 -11 -25 25 -11 -7 15 -34 14 -15 24 -30 21 -34 -4 -3 -25 15 -49 41 -24 26 -62 58 -86 72 -24 14 -42 28 -39 31 3 2 17 -3 31 -12 14 -9 25 -14 25 -10 0 3 -40 51 -88 107 -107 124 -142 170 -142 186 0 19 10 9 95 -96z m-955 -54 c25 -5 82 -28 128 -51 84 -41 147 -95 227 -192 37 -44 44 -49 83 -49 55 0 82 24 82 73 0 68 -83 147 -180 170 -45 11 -54 10 -91 -8 -38 -19 -40 -19 -23 -1 73 81 324 -37 324 -153 0 -33 -47 -88 -76 -88 -9 0 12 -15 46 -32 100 -52 149 -140 104 -189 -14 -15 -12 -18 17 -28 18 -6 53 -11 78 -12 41 0 43 -2 23 -11 -17 -9 -37 -7 -82 5 -58 16 -63 16 -120 -3 -229 -77 -610 91 -610 270 0 40 45 86 91 92 68 10 225 -44 238 -83 2 -7 -9 -4 -25 8 -55 37 -109 57 -171 61 -59 4 -64 2 -93 -26 -16 -17 -30 -39 -30 -50 0 -69 89 -164 205 -218 124 -58 254 -77 364 -53 63 13 82 33 49 50 -52 28 -117 91 -245 241 -74 86 -158 175 -187 197 -112 87 -247 102 -323 37 -24 -21 -28 -32 -28 -78 0 -44 5 -62 28 -91 15 -20 23 -37 18 -37 -20 0 -61 86 -61 126 1 105 99 155 240 123z m650 -115 c44 -43 78 -79 75 -82 -2 -3 -14 6 -25 19 -14 17 -18 18 -14 6 3 -9 1 -24 -6 -32 -10 -13 -17 -12 -49 5 -42 21 -95 77 -106 110 -7 23 9 50 31 50 8 0 50 -34 94 -76z m80 59 c35 -23 140 -126 140 -137 0 -5 -10 -1 -22 10 -18 16 -20 17 -15 2 3 -9 -1 -22 -8 -28 -19 -15 -68 14 -119 70 -60 67 -42 128 24 83z m99 -16 c11 -18 29 -41 40 -51 11 -10 18 -22 15 -27 -2 -4 50 -62 116 -129 67 -66 120 -125 118 -132 -9 -27 -30 -16 -93 48 -73 76 -235 293 -235 317 0 18 20 4 39 -26z m137 -9 c25 -23 59 -60 76 -82 17 -23 -1 -8 -39 32 -69 73 -93 87 -93 55 0 -39 13 -62 41 -73 38 -16 82 -57 74 -70 -12 -19 -42 -10 -90 26 -31 25 -43 39 -35 44 9 5 9 9 1 14 -12 8 -15 78 -4 89 12 13 23 7 69 -35z m297 22 c25 -20 25 -20 30 0 7 27 20 25 61 -10 l35 -31 3 28 c5 49 40 42 108 -23 67 -63 75 -64 30 -3 -16 23 -27 46 -23 52 3 6 15 -3 27 -19 45 -65 176 -172 176 -145 0 13 -49 51 -66 51 -36 0 -60 107 -27 117 14 5 115 -86 146 -132 11 -16 -12 3 -50 43 -73 75 -93 86 -93 51 0 -34 18 -58 60 -79 39 -20 65 -51 53 -64 -15 -15 -45 -3 -95 36 -51 41 -52 41 -25 8 16 -18 62 -64 103 -103 92 -86 121 -124 105 -140 -15 -15 -109 78 -193 188 -34 44 -63 79 -65 77 -2 -2 -23 14 -47 36 -59 55 -95 77 -106 66 -19 -19 34 -94 95 -137 22 -16 26 -17 16 -4 -8 10 -11 21 -7 25 4 4 14 -2 22 -12 11 -15 11 -22 2 -27 -19 -12 -64 17 -144 92 -42 38 -79 69 -85 69 -18 0 -8 -20 36 -75 38 -46 44 -59 35 -75 -12 -23 -22 -27 -14 -5 7 17 -62 103 -107 136 l-29 20 0 -22 c0 -14 22 -44 58 -81 33 -32 53 -58 45 -58 -7 0 -38 24 -68 53 -38 37 -55 61 -55 78 0 44 15 49 53 19z m-1723 -380 c0 -19 -7 -20 -240 -20 -233 0 -240 1 -240 20 0 19 7 20 240 20 233 0 240 -1 240 -20z"/>
<path d="M1826 828 c29 -52 98 -138 130 -164 60 -47 63 -48 74 -19 15 41 -17 105 -71 142 -65 44 -150 70 -133 41z"/>
<path d="M1960 1086 c0 -32 112 -152 131 -141 16 10 -7 51 -56 102 -51 53 -75 65 -75 39z"/>
<path d="M2107 1094 c-10 -11 18 -56 64 -101 67 -68 95 -52 40 24 -16 22 -43 50 -59 62 -33 23 -36 24 -45 15z"/>
<path d="M2405 855 c55 -70 87 -105 109 -117 18 -10 18 -8 -2 18 -11 16 -49 56 -83 89 l-62 60 38 -50z"/>
</g>
<g id="layer122" fill="#c5bac6" stroke="none">
<path d="M0 895 l0 -895 1700 0 1700 0 0 895 0 895 -1700 0 -1700 0 0 -895z m980 220 l0 -305 -249 0 -249 0 -32 -26 c-28 -24 -31 -31 -28 -77 2 -41 8 -54 31 -71 27 -20 44 -21 270 -26 133 -3 241 -8 240 -12 -2 -5 -3 -12 -3 -18 0 -15 -475 -13 -503 1 -33 17 -68 51 -78 77 -11 29 -30 28 -60 -4 -34 -36 -33 -95 4 -131 l27 -28 243 -5 c220 -5 242 -7 245 -22 3 -17 -13 -18 -238 -18 -264 0 -275 2 -324 61 l-27 31 3 345 3 345 37 34 c21 19 46 34 56 34 11 0 22 12 30 35 7 18 27 45 43 60 l31 25 264 0 264 0 0 -305z m1427 48 c40 -51 52 -61 71 -56 46 11 162 -89 162 -139 0 -31 -25 -38 -49 -15 -21 18 -3 -12 22 -40 11 -13 18 -25 15 -28 -6 -7 -121 106 -124 123 -1 7 -40 56 -86 110 -105 121 -138 165 -138 183 1 15 54 -43 127 -138z m-911 -40 c106 -45 179 -98 251 -184 72 -86 97 -98 153 -71 36 18 48 49 36 96 -8 33 -73 96 -120 117 -51 23 -133 25 -166 3 -22 -14 -22 -12 3 10 33 30 70 33 144 11 93 -28 173 -105 173 -167 0 -31 -44 -88 -68 -88 -9 0 12 -17 48 -38 96 -56 137 -135 94 -183 -14 -15 -12 -18 17 -28 18 -6 53 -11 78 -12 40 0 43 -2 24 -11 -18 -8 -38 -7 -88 7 -43 11 -69 14 -78 8 -22 -18 -105 -33 -179 -33 -267 0 -552 221 -445 345 46 54 161 50 261 -9 74 -43 53 -46 -30 -4 -60 30 -87 38 -131 38 -47 0 -59 -4 -84 -29 -16 -16 -29 -38 -29 -49 0 -171 406 -344 605 -257 37 15 38 18 21 28 -52 32 -147 122 -219 207 -189 226 -251 279 -358 306 -169 43 -279 -78 -184 -202 15 -19 25 -38 22 -41 -4 -3 -20 16 -36 43 -52 81 -40 155 31 199 38 23 51 26 113 22 48 -3 92 -13 141 -34z m574 -89 c44 -42 80 -82 80 -88 0 -6 -11 3 -24 19 l-24 30 5 -26 c10 -52 -48 -40 -114 23 -42 41 -60 83 -43 103 21 26 38 17 120 -61z m80 60 c35 -24 140 -127 140 -138 0 -5 -9 -1 -20 9 -16 14 -19 15 -15 4 3 -9 -1 -21 -9 -28 -20 -16 -68 12 -120 69 -60 67 -43 128 24 84z m99 -17 c11 -18 29 -41 40 -51 11 -10 18 -22 15 -27 -3 -5 49 -62 116 -127 66 -64 120 -123 120 -129 0 -21 -20 -25 -43 -10 -49 32 -287 338 -287 368 0 19 20 7 39 -24z m137 -9 c25 -23 59 -60 76 -82 17 -23 0 -9 -39 32 -70 73 -93 86 -93 55 0 -42 14 -62 52 -79 60 -27 85 -74 39 -74 -27 0 -116 71 -101 80 9 5 9 9 1 14 -12 8 -15 78 -4 89 12 13 23 7 69 -35z m297 22 c25 -20 25 -20 30 0 7 27 20 25 61 -10 l35 -31 3 28 c5 49 40 42 108 -23 67 -63 75 -64 30 -3 -36 50 -28 75 9 28 51 -66 171 -165 171 -141 0 14 -49 52 -66 52 -36 0 -60 107 -27 117 14 5 115 -87 145 -132 11 -16 -11 3 -50 43 -74 75 -92 86 -92 51 0 -34 18 -58 60 -79 39 -20 65 -51 53 -64 -15 -14 -45 -3 -95 36 -64 50 -44 27 96 -113 91 -90 107 -117 79 -126 -16 -6 -115 97 -182 187 -31 41 -59 75 -63 75 -4 0 -24 16 -45 36 -47 44 -93 79 -104 79 -25 0 -5 -52 36 -97 35 -38 46 -45 54 -34 8 12 12 12 25 2 20 -17 20 -27 0 -35 -20 -8 -88 39 -161 110 -86 83 -102 70 -28 -21 38 -46 44 -59 35 -75 -15 -28 -27 -25 -88 17 -53 36 -82 75 -82 111 0 37 17 40 53 12z m-197 -75 c10 -8 14 -15 8 -15 -5 0 -19 7 -30 15 -10 8 -14 15 -8 15 5 0 19 -7 30 -15z m-1526 -305 c0 -19 -7 -20 -240 -20 -233 0 -240 1 -240 20 0 19 7 20 240 20 233 0 240 -1 240 -20z"/>
<path d="M2480 1085 c0 -19 117 -135 136 -135 27 0 14 22 -50 86 -65 64 -86 77 -86 49z"/>
<path d="M1828 824 c33 -61 165 -204 189 -204 2 0 8 11 13 25 25 67 -72 170 -180 192 -29 5 -31 4 -22 -13z"/>
<path d="M1960 1086 c0 -19 65 -101 100 -126 l30 -21 0 26 c0 17 -17 43 -53 80 -53 55 -77 68 -77 41z"/>
<path d="M2107 1094 c-10 -11 12 -46 61 -96 46 -48 72 -60 72 -34 0 17 -52 84 -88 113 -29 24 -35 27 -45 17z"/>
<path d="M2391 875 c54 -69 106 -128 123 -137 18 -10 18 -9 -2 18 -11 16 -47 54 -78 84 -32 30 -51 46 -43 35z"/>
<path d="M2346 979 c23 -26 74 -53 74 -40 0 11 -69 61 -84 61 -5 0 -1 -9 10 -21z"/>
<path d="M2650 1080 c0 -11 19 -41 42 -66 44 -48 98 -83 98 -64 0 15 -88 116 -117 135 -21 14 -23 14 -23 -5z"/>
<path d="M3106 870 c31 -45 88 -111 110 -125 24 -16 25 -16 15 2 -5 10 -38 45 -72 78 -35 33 -58 53 -53 45z"/>
</g>
<g id="layer123" fill="#ffffff" stroke="none">
<path d="M0 895 l0 -895 1700 0 1700 0 0 895 0 895 -1700 0 -1700 0 0 -895z m980 220 l0 -305 -249 0 -249 0 -32 -26 c-28 -24 -31 -31 -28 -77 2 -41 8 -54 31 -71 27 -20 44 -21 270 -26 133 -3 241 -8 240 -12 -2 -5 -3 -12 -3 -18 0 -15 -475 -13 -503 1 -33 17 -68 51 -78 77 -11 29 -30 28 -60 -4 -34 -36 -33 -95 4 -131 l27 -28 243 -5 c220 -5 242 -7 245 -22 3 -17 -13 -18 -238 -18 -264 0 -275 2 -324 61 l-27 31 3 345 3 345 37 34 c21 19 46 34 56 34 11 0 22 12 30 35 7 18 27 45 43 60 l31 25 264 0 264 0 0 -305z m1397 90 c65 -81 86 -102 102 -98 42 11 147 -74 165 -133 9 -30 -18 -52 -41 -33 -11 9 -9 2 6 -19 36 -52 14 -51 -30 1 -23 26 -61 59 -85 73 -45 27 -56 46 -12 23 28 -15 36 -26 -104 144 -87 105 -114 148 -90 146 4 0 44 -47 89 -104z m-936 -61 c128 -38 241 -116 325 -225 42 -56 48 -59 87 -59 61 0 87 22 87 71 0 79 -116 169 -217 169 -33 0 -55 -5 -63 -15 -13 -16 -30 -20 -30 -7 0 4 13 15 29 25 97 57 311 -56 311 -165 0 -31 -44 -88 -68 -88 -10 0 7 -14 37 -30 30 -17 63 -38 74 -48 42 -38 61 -114 35 -140 -20 -20 6 -35 72 -40 33 -2 57 -8 54 -13 -8 -14 -57 -11 -104 6 -38 13 -46 13 -100 -5 -73 -25 -200 -27 -285 -5 -134 35 -281 129 -321 207 -20 39 -17 91 7 121 45 58 151 57 257 -3 80 -46 62 -51 -25 -7 -70 35 -84 38 -137 35 -49 -4 -63 -9 -83 -32 -28 -33 -29 -55 -4 -104 42 -82 162 -161 302 -199 84 -23 230 -22 283 0 l38 17 -58 44 c-68 50 -103 86 -239 246 -160 188 -239 241 -360 242 -137 1 -193 -88 -124 -196 36 -57 32 -72 -5 -23 -36 48 -48 92 -36 137 24 87 131 122 261 84z m612 -90 c69 -63 97 -94 96 -109 0 -5 -9 1 -19 14 -20 23 -20 23 -20 2 0 -32 -25 -36 -64 -12 -66 41 -120 121 -101 150 14 23 48 9 108 -45z m90 45 c12 -6 53 -41 91 -78 l69 -66 -47 69 c-25 37 -46 72 -46 77 0 19 17 8 45 -29 50 -65 165 -157 165 -133 0 11 -53 51 -67 51 -6 0 -18 9 -27 19 -21 23 -19 96 3 96 29 0 161 -130 161 -158 0 -7 -7 -3 -16 8 -26 36 -126 135 -135 135 -5 0 -9 -11 -9 -25 0 -27 23 -53 80 -89 19 -12 35 -28 35 -36 0 -29 -42 -21 -91 16 -27 20 -47 34 -44 31 3 -4 56 -57 118 -120 108 -109 132 -147 95 -147 -20 0 -139 121 -185 188 -16 23 -34 40 -39 36 -5 -3 -18 5 -29 18 -11 13 -18 16 -15 7 3 -9 -1 -22 -10 -29 -13 -10 -21 -8 -53 12 -76 51 -113 105 -98 143 6 18 20 19 49 4z m543 -10 l18 -20 8 20 c10 28 21 26 63 -10 l35 -31 0 25 c0 56 46 47 119 -23 29 -28 50 -54 46 -58 -4 -4 -14 4 -23 16 -17 26 -99 92 -113 92 -24 0 -4 -51 36 -95 36 -41 46 -47 54 -35 9 13 12 13 28 -2 13 -14 14 -21 5 -30 -17 -17 -70 14 -157 95 -40 37 -76 67 -79 67 -14 0 -3 -21 39 -72 33 -40 43 -60 38 -76 -3 -12 -13 -22 -22 -22 -28 1 -111 59 -131 93 -40 65 -12 119 36 66z m413 -142 c17 -10 31 -14 31 -8 0 12 -48 51 -63 51 -24 0 -47 34 -47 71 0 74 39 61 130 -44 34 -38 58 -72 55 -75 -3 -3 -22 14 -42 39 -45 53 -104 109 -115 109 -4 0 -8 -11 -8 -25 0 -27 23 -53 80 -89 19 -12 36 -29 38 -39 6 -30 -43 -20 -95 19 -32 24 -8 -4 70 -83 64 -66 117 -127 117 -136 0 -35 -37 -15 -103 55 -74 79 -229 296 -221 309 2 5 36 -24 73 -64 38 -40 83 -80 100 -90z m-2139 -237 c0 -19 -7 -20 -240 -20 -233 0 -240 1 -240 20 0 19 7 20 240 20 233 0 240 -1 240 -20z"/>
<path d="M463 1370 c-40 -16 -43 -38 -43 -301 0 -233 1 -250 17 -238 12 11 73 15 257 19 l241 5 3 263 2 262 -227 -1 c-126 0 -238 -4 -250 -9z"/>
<path d="M345 1250 c-48 -19 -50 -28 -53 -298 -2 -140 0 -252 5 -250 4 3 23 11 41 18 l32 14 0 263 c0 145 -1 263 -2 262 -2 0 -12 -4 -23 -9z"/>
<path d="M2480 1087 c0 -14 95 -113 124 -129 32 -18 17 22 -26 68 -48 52 -98 83 -98 61z"/>
<path d="M1859 783 c52 -75 78 -104 122 -137 32 -23 37 -24 43 -10 23 60 -28 138 -119 180 -83 39 -92 33 -46 -33z"/>
<path d="M1960 1086 c0 -19 74 -112 101 -126 53 -29 25 44 -39 100 -48 43 -62 48 -62 26z"/>
<path d="M2110 1081 c0 -11 23 -45 51 -75 50 -54 79 -70 79 -42 0 25 -98 134 -122 136 -5 0 -8 -9 -8 -19z"/>
<path d="M2408 855 c56 -74 100 -120 107 -113 4 4 -25 40 -65 80 -45 45 -61 58 -42 33z"/>
<path d="M2650 1081 c0 -38 117 -147 137 -127 7 6 -84 112 -114 131 -21 14 -23 14 -23 -4z"/>
<path d="M3128 844 c49 -65 92 -107 99 -100 4 4 -24 37 -62 74 -51 51 -60 57 -37 26z"/>
</g>


</svg>